<svg xmlns="http://www.w3.org/2000/svg">
  <symbol id="mobil" viewBox="0 0 191 36">
    <g clip-path="url(#clip0_328_930)">
    <path d="M74.8032 6.96183H80.0832V8.76412C80.6501 8.27099 82.4807 6.51985 85.8614 6.51985C89.8395 6.51985 93.0002 9.4542 93.0002 14.0618V26.0221H87.423V15.5443C87.423 12.9756 86.1693 11.4519 83.9002 11.4519C81.7022 11.4519 80.3797 12.8886 80.3797 15.5443V26.0221H74.8032V6.96183ZM127.926 16.4916C127.926 10.9931 132.332 6.51985 138.104 6.51985C143.873 6.51985 148.279 10.9931 148.279 16.4916C148.279 21.9885 143.873 26.4565 138.104 26.4565C132.332 26.4565 127.926 21.9885 127.926 16.4916ZM133.431 16.4916C133.431 19.1244 135.4 21.2908 138.137 21.2908C140.878 21.2908 142.85 19.1244 142.85 16.4916C142.85 13.8573 140.878 11.6924 138.137 11.6924C135.401 11.6924 133.431 13.8573 133.431 16.4916ZM51.3316 16.4954C51.3316 10.9947 55.7407 6.52137 61.5066 6.52137C67.2794 6.52137 71.6869 10.9947 71.6869 16.4954C71.6869 21.9908 67.2794 26.4573 61.5066 26.4573C55.7399 26.458 51.3316 21.9908 51.3316 16.4954ZM56.837 16.4939C56.837 19.1282 58.8058 21.2947 61.5455 21.2947C64.2868 21.2947 66.2556 19.1282 66.2556 16.4939C66.2556 13.8573 64.2868 11.6947 61.5455 11.6947C58.8058 11.6947 56.837 13.8573 56.837 16.4939ZM175.333 4.85038H180.985V0H175.333V4.85038ZM175.333 26.0221H180.985V6.96183H175.333V26.0221ZM185.345 26.0221H191V0H185.345V26.0221ZM156.909 26.0221H151.548V0H156.97V8.47481C157.239 8.2771 158.995 6.51985 162.833 6.51985C167.852 6.51985 172.041 10.8267 172.041 16.4954C172.041 22.1534 167.58 26.4603 162.769 26.4603C159.109 26.4603 157.364 24.8542 156.97 24.555L156.909 26.0221ZM166.312 16.4809C166.312 13.8008 164.278 11.7214 161.555 11.7214C158.847 11.7214 156.768 13.7817 156.768 16.4962C156.768 19.1763 158.819 21.2557 161.549 21.2557C164.252 21.255 166.312 19.1687 166.312 16.4809ZM18.4506 26.0221H24.9897L30.8679 18.474L34.5328 22.1832L26.1464 32.6748H32.7084L38.0785 25.7214L48.1862 36H56.1082L41.5807 21.4038L53.0216 6.96183H46.4558L38.0006 17.8092L34.3418 14.1344L43.7474 2.29924H37.1992L30.7754 10.5573L27.287 6.96183H19.4744L27.3436 14.9L18.4506 26.0221ZM0 0V26.0221H17.1526V21.1664H5.83543V14.9489H16.6445V10.242H5.83543V4.84809H17.1526V0H0ZM97.4673 0V26.0221H102.955V6.37405H103.204L107.926 26.0229H114.09L118.923 6.37405H119.173V26.0229H124.66V0H115.699L111.237 18.9916H111.038L106.687 0H97.4673Z" fill="#949494"/>
    </g>
    <defs>
    <clipPath id="clip0_328_930">
    <rect width="191" height="36" fill="white"/>
    </clipPath>
    </defs>
  </symbol>

  <symbol id="international-sos" viewBox="0 0 74 36">
    <path fill-rule="evenodd" clip-rule="evenodd" d="M37.6117 0.0435582C28.8013 0.539303 20.521 2.69714 13.2537 6.39123C11.4383 7.31396 9.06543 8.71412 9.77905 8.44146C10.3876 8.20894 13.5535 7.16137 14.6865 6.81764C18.9747 5.5165 22.8954 4.69656 26.7581 4.29307C30.8648 3.864 39.7593 3.82493 43.8087 4.21811C54.0006 5.2078 62.5331 7.80639 67.5374 11.4448C72.2609 14.879 73.8802 19.2421 72.3069 24.2959C72.2082 24.613 72.1068 24.9062 72.0814 24.9474C72.0561 24.9885 72.1221 24.9237 72.2281 24.8032C73.0158 23.9079 73.7129 22.0556 73.9374 20.2615C74.0649 19.2413 73.9883 17.0747 73.7919 16.1512C72.55 10.3118 67.2564 5.54541 58.7874 2.64107C55.1442 1.39176 50.799 0.542763 46.0296 0.148358C44.4206 0.0153041 39.2562 -0.0489886 37.6117 0.0435582ZM43.7983 12.8697C43.3796 12.9599 42.8456 13.2493 42.5768 13.532C42.4508 13.6643 42.2574 13.9672 42.1469 14.2051C41.9539 14.6205 41.946 14.6814 41.946 15.7564V16.8753L42.1819 17.3571C42.6367 18.2862 43.3153 18.657 44.5609 18.657C45.1575 18.657 45.3959 18.6251 45.7129 18.5027C46.8593 18.0601 47.385 16.8745 47.1998 15.1495C47.0412 13.6724 46.2189 12.8928 44.7567 12.8329C44.3929 12.818 43.9617 12.8345 43.7983 12.8697ZM0 15.7547V18.6378H0.752235H1.50447V15.7547V12.8717H0.752235H0V15.7547ZM2.43581 15.7573V18.6429L3.17013 18.6223L3.90446 18.6018V16.962C3.90446 16.0601 3.92258 15.3222 3.94479 15.3223C3.96693 15.3223 4.49406 16.0683 5.1162 16.9801L6.24727 18.6378H6.99227H7.73727V15.7547V12.8717H6.98633H6.23538L6.21618 14.5701L6.19698 16.2686L5.05752 14.5701L3.91814 12.8717H3.17694H2.43581V15.7573ZM8.23876 13.5564V14.2411H9.06264H9.88651V16.442V18.6429L10.6208 18.6223L11.3552 18.6018L11.3741 16.4215L11.3931 14.2411H12.2159H13.0387V13.5564V12.8717H10.6387H8.23876V13.5564ZM13.4686 15.7547V18.6401L15.4566 18.621L17.4447 18.6018V18.0252V17.4486L16.2089 17.4288L14.9731 17.4091V16.8702V16.3314H16.0505H17.1281L17.1072 15.7367L17.0865 15.1421L16.0298 15.1221L14.9731 15.1022V14.6013V14.1004L16.2089 14.0807L17.4447 14.0609V13.4843V12.9077L15.4566 12.8885L13.4686 12.8694V15.7547ZM18.1253 15.7573V18.6429L18.8596 18.6223L19.5939 18.6018L19.6139 17.6468L19.6339 16.6917H19.9139H20.1938L20.7106 17.6352C20.9948 18.154 21.2648 18.5931 21.3107 18.6108C21.3566 18.6285 21.7349 18.6337 22.1514 18.6224L22.9086 18.6018L22.3038 17.6648C21.4665 16.3677 21.513 16.5046 21.8502 16.3316C22.8517 15.8175 22.9862 14.1307 22.0855 13.381C21.5931 12.9712 21.0907 12.8717 19.5148 12.8717H18.1253V15.7573ZM23.4267 15.7523V18.6378H24.179H24.9312V16.9713C24.9312 15.6453 24.9495 15.3202 25.0208 15.381C25.07 15.4229 25.5939 16.1718 26.1849 17.0451L27.2596 18.6329L27.9939 18.6354L28.7282 18.6378V15.7547V12.8717H28.0118H27.2954V14.5354C27.2954 15.5949 27.2698 16.1905 27.2249 16.1752C27.1861 16.162 26.6622 15.4214 26.0606 14.5294L24.967 12.9077L24.1968 12.8872L23.4267 12.8668V15.7523ZM31.5633 12.9352C31.5418 12.9701 31.0855 14.1134 30.5491 15.4759C30.0128 16.8383 29.5127 18.1082 29.4378 18.2978L29.3015 18.6425L30.1029 18.6222L30.9042 18.6018L31.1209 17.9351L31.3374 17.2684H32.2804H33.2234L33.4319 17.9351L33.6404 18.6018L34.4508 18.6223C34.9131 18.6339 35.2505 18.6147 35.2365 18.5775C35.2228 18.5417 34.712 17.2434 34.1013 15.6926L32.9909 12.8728L32.2966 12.8722C31.9147 12.872 31.5848 12.9002 31.5633 12.9352ZM34.4595 13.5564V14.2411H35.2834H36.1073V16.442V18.6429L36.8416 18.6223L37.5759 18.6018L37.5949 16.4238L37.6138 14.2458L38.4188 14.2255L39.2237 14.2051L39.2443 13.5384L39.2649 12.8717H36.8622H34.4595V13.5564ZM39.6893 15.7547V18.6378H40.4057H41.1222V15.7547V12.8717H40.4057H39.6893V15.7547ZM47.9281 15.7547V18.6378H48.6803H49.4326V16.9331V15.2283L50.594 16.9331L51.7555 18.6378H52.4925H53.2296V15.7547V12.8717H52.4773H51.7251V14.5798V16.288L50.575 14.5798L49.4248 12.8717H48.6765H47.9281V15.7547ZM54.9665 15.6262C54.3696 17.1439 53.8601 18.4423 53.8343 18.5117C53.7914 18.627 53.8548 18.6378 54.5772 18.6378H55.367L55.5944 17.9511L55.8218 17.2643L56.76 17.2844L57.6981 17.3044L57.9147 17.9711L58.1313 18.6378H58.9121C59.6865 18.6378 59.6925 18.6365 59.6505 18.4756C59.6273 18.3864 59.1283 17.0972 58.5418 15.6106L57.4752 12.9077L56.7636 12.8873L56.0519 12.8669L54.9665 15.6262ZM60.1788 15.7522V18.6378H62.1847H64.1907V17.9531V17.2684H62.938H61.6853L61.6664 15.088L61.6474 12.9077L60.9131 12.8872L60.1788 12.8666V15.7522ZM20.8373 14.1997C21.246 14.4123 21.3245 14.9702 20.9975 15.3384C20.8001 15.5606 20.7588 15.5743 20.2095 15.5993L19.6297 15.6259V14.8614V14.097H20.1348C20.4318 14.097 20.7211 14.1393 20.8373 14.1997ZM45.1927 14.2433C45.5767 14.4788 45.743 14.9357 45.743 15.7547C45.743 16.3422 45.7175 16.4899 45.5639 16.795C45.3512 17.2173 45.034 17.4125 44.5609 17.4125C44.0879 17.4125 43.7707 17.2173 43.558 16.795C43.4024 16.4863 43.3789 16.3447 43.3789 15.7187C43.3789 15.0839 43.4003 14.9593 43.5583 14.6736C43.6685 14.4746 43.8346 14.3005 43.9882 14.2233C44.3318 14.0503 44.8932 14.0596 45.1927 14.2433ZM32.5621 15.2534C32.6994 15.6636 32.8118 16.0254 32.8118 16.0572C32.8118 16.089 32.57 16.1151 32.2744 16.1151C31.9789 16.1151 31.7371 16.0908 31.7371 16.0612C31.7371 15.9506 32.2547 14.4494 32.283 14.4779C32.2992 14.4943 32.4248 14.8433 32.5621 15.2534ZM57.2819 15.9855C57.3189 16.1029 57.2688 16.1151 56.7496 16.1151H56.1763L56.4226 15.3763C56.5581 14.97 56.6885 14.5889 56.7125 14.5294C56.7484 14.4405 56.9867 15.05 57.2819 15.9855ZM69.311 14.934C69.6132 16.0484 69.7263 18.2875 69.5401 19.4679C68.7767 24.3087 64.7948 28.3045 57.6355 31.414C53.399 33.254 47.5647 34.8668 41.9212 35.758C41.6965 35.7934 41.6316 35.829 41.688 35.8857C41.8046 36.003 45.6554 36.0432 47.1888 35.9432C54.5538 35.4625 62.3163 32.873 67.2683 29.245C69.715 27.4525 70.944 25.9329 71.6415 23.8387C71.9896 22.793 72.0927 22.0067 72.0488 20.7281C71.9933 19.1086 71.6545 17.9581 70.8485 16.6525C70.454 16.0136 69.234 14.6498 69.311 14.934ZM51.2717 19.9617C50.5194 20.1753 50.0315 20.7337 49.9568 21.4664C49.8987 22.0371 50.0364 22.4373 50.4254 22.8287C50.7 23.105 50.8526 23.1909 51.2955 23.319C52.4678 23.6579 52.6844 23.8024 52.5303 24.1425C52.31 24.6291 51.0853 24.5365 50.2385 23.9692L50.0057 23.8132V24.4967C50.0057 25.287 50.0071 25.2889 50.8041 25.563C51.7307 25.8818 52.8749 25.7522 53.4668 25.2613C54.0502 24.7775 54.2183 23.8951 53.8695 23.1484C53.6191 22.6124 53.3238 22.4325 52.0117 22.0159C51.5423 21.8668 51.4716 21.822 51.4531 21.6613C51.4395 21.5443 51.4879 21.4263 51.5861 21.337C51.8125 21.1311 52.7734 21.1449 53.2475 21.3608L53.5878 21.5158V20.8748V20.2339L53.1758 20.077C52.6581 19.8799 51.7531 19.8251 51.2717 19.9617ZM56.3101 19.9616C55.2718 20.2658 54.7413 20.9516 54.5746 22.2048C54.4657 23.0242 54.5748 23.8302 54.8791 24.4536C55.1273 24.9619 55.3888 25.2118 55.9519 25.4786C56.3103 25.6484 56.4271 25.6653 57.2415 25.6653C58.075 25.6653 58.165 25.6515 58.5412 25.4657C59.0562 25.2112 59.4688 24.7604 59.6834 24.2179C59.8324 23.8413 59.8522 23.6733 59.8522 22.7822C59.8522 21.9071 59.8309 21.7198 59.6925 21.371C59.4668 20.8024 59.1092 20.4147 58.5595 20.1424C58.1419 19.9356 58.0154 19.9088 57.3625 19.8891C56.9078 19.8755 56.5109 19.9028 56.3101 19.9616ZM61.9507 19.9369C60.9933 20.1802 60.4716 20.8842 60.5511 21.826C60.6184 22.6235 61.0122 23.0546 61.9252 23.3304C62.8935 23.6228 63.0524 23.6941 63.133 23.872C63.2457 24.1207 62.9862 24.3824 62.5636 24.4461C62.1459 24.5091 61.3928 24.3222 60.9489 24.0455L60.6086 23.8333V24.511C60.6086 25.1317 60.6222 25.1983 60.7698 25.3034C61.0945 25.5346 61.9083 25.7294 62.5552 25.7308C63.124 25.7321 63.2174 25.7112 63.6626 25.4825C64.335 25.1372 64.5702 24.7959 64.6088 24.1087C64.6655 23.0992 64.2265 22.5302 63.1402 22.2047C62.1502 21.9081 62.0414 21.8478 62.0414 21.596C62.0414 21.4266 62.0903 21.3551 62.2694 21.2619C62.5835 21.0985 63.4004 21.1532 63.8117 21.3654C63.9776 21.4509 64.1307 21.5209 64.152 21.5209C64.1733 21.5209 64.1907 21.2313 64.1907 20.8774V20.2339L63.7788 20.077C63.3133 19.8998 62.3789 19.8282 61.9507 19.9369ZM57.8732 21.3068C58.2366 21.5298 58.4135 21.9986 58.4165 22.7462C58.4193 23.442 58.3103 23.8459 58.0418 24.1353C57.6402 24.5682 56.8467 24.5786 56.4273 24.1566C56.1075 23.8349 55.9983 23.4046 56.0377 22.6217C56.0739 21.9035 56.2387 21.4925 56.5725 21.2886C56.8672 21.1085 57.5658 21.1183 57.8732 21.3068Z" fill="#949494"/>
  </symbol>

  <symbol id="medbury" viewBox="0 0 98 36">
    <path fill-rule="evenodd" clip-rule="evenodd" d="M8.76021 4.44445V8.88889H4.3801H0V18V27.1111H4.3801H8.76021V31.5556V36H17.7394H26.7186V31.564C26.7186 28.1387 26.4085 25.8102 25.3573 21.3418C24.6087 18.1596 23.8694 15.5591 23.7148 15.5636C23.5601 15.5676 22.8365 18.0178 22.1068 21.008L20.7801 26.4444L19.3303 26.5867C18.103 26.7071 17.9159 26.6044 18.1135 25.92C18.2418 25.4751 19.0587 22.3111 19.929 18.8889C20.7994 15.4667 21.7052 11.9169 21.9417 11C22.3271 9.508 22.5207 9.33334 23.787 9.33334H25.2022L26.4961 14.9124C27.7572 20.3476 28.2206 21.7489 28.6161 21.3204C28.8986 21.0142 34.6028 9.38711 34.6028 9.11734C34.6028 8.99156 32.8289 8.88889 30.6607 8.88889H26.7186V4.44445V3.7063e-06H17.7394H8.76021V4.44445ZM68.3296 1.50089V3.00178L66.4379 2.78578C64.7274 2.58978 64.4335 2.70489 63.3718 3.98534C61.8909 5.77156 61.8405 7.67822 63.2373 9.09511C64.0914 9.96222 64.7143 10.1462 66.7322 10.128C69.5162 10.1027 69.2083 10.6453 70.0799 4.22223C70.6568 -0.0257738 70.6607 3.7063e-06 69.4247 3.7063e-06C68.4729 3.7063e-06 68.3296 0.196448 68.3296 1.50089ZM71.8249 0.555559C71.8149 1.20489 71.083 6.68178 70.726 8.77778C70.5017 10.0942 70.5788 10.2222 71.595 10.2222C72.2082 10.2222 72.7097 9.98223 72.7097 9.68889C72.7097 9.27423 72.8267 9.27423 73.2353 9.68889C74.838 11.3151 78.4039 8.85156 78.4039 6.11778C78.4039 3.96578 76.9755 2.53111 75.0597 2.75823C73.598 2.93111 73.5822 2.91467 73.8499 1.46667C74.1004 0.111559 74.0343 3.7063e-06 72.9774 3.7063e-06C72.3484 3.7063e-06 71.8298 0.250226 71.8249 0.555559ZM44.5356 0.761338C44.4125 0.96356 43.897 2.86934 43.3902 4.99645C42.8834 7.12356 42.3534 9.16934 42.2119 9.54311C42.0223 10.0453 42.2527 10.2222 43.0972 10.2222C43.7253 10.2222 44.2478 10.072 44.2583 9.88889C44.2688 9.70578 44.5395 8.55556 44.8597 7.33334L45.4414 5.11111L45.9854 7.11111C46.2846 8.21111 46.5991 9.36134 46.6845 9.66667C47.0384 10.9329 48.2477 10.0636 49.4671 7.66667L50.7672 5.11111L50.7882 7.66667C50.807 9.932 50.9104 10.2222 51.6988 10.2222C52.976 10.2222 53.1403 9.38578 52.7908 4.65511C52.5139 0.912003 52.3865 0.444448 51.6401 0.444448C51.0427 0.444448 50.3931 1.284 49.3835 3.36134L47.9661 6.27778L47.2867 3.47245C46.7436 1.22934 46.4221 0.639115 45.6836 0.530226C45.1755 0.455115 44.6591 0.559115 44.5356 0.761338ZM55.9558 3.14667C54.8021 3.82845 53.7653 6.16223 54.0698 7.39245C54.4815 9.05734 55.8941 10.2222 57.5007 10.2222C58.9233 10.2222 60.8834 9.19645 60.8834 8.452C60.8834 7.888 59.4976 7.664 58.41 8.052C57.8169 8.26356 57.1704 8.15734 56.658 7.76356C55.9357 7.208 56.1775 7.13778 58.8577 7.12533L61.869 7.11111L61.5939 5.66667C61.4428 4.87245 60.9032 3.872 60.3955 3.44445C59.3798 2.58889 57.1529 2.43956 55.9558 3.14667ZM79.9719 3.05378C79.8423 3.26667 79.6903 4.55378 79.6342 5.91467C79.5164 8.77334 80.4183 10.2222 82.3162 10.2222C84.2001 10.2222 85.2942 9.10312 85.8137 6.64534C86.5316 3.248 86.4497 2.66667 85.2539 2.66667C84.3354 2.66667 84.19 2.92267 83.9517 4.96578C83.6574 7.48622 83.19 8.25334 82.1856 7.86223C81.6657 7.65956 81.5808 7.08845 81.7792 5.13645C82.0118 2.84934 81.9631 2.66667 81.1191 2.66667C80.6176 2.66667 80.1016 2.84089 79.9719 3.05378ZM86.9744 5.25067C86.8185 6.64045 86.5846 8.32756 86.4545 9C86.2486 10.0662 86.3555 10.2222 87.2937 10.2222C88.1474 10.2222 88.4251 9.936 88.6424 8.83334C88.793 8.06934 88.9161 7.00534 88.9161 6.46889C88.9161 5.93245 89.3953 5.07112 89.9809 4.55423L91.0457 3.61511L91.9309 6.276C92.8105 8.91778 92.8105 8.94667 91.9629 10.3573C90.8714 12.1738 90.888 12.4467 92.0917 12.4351C92.8766 12.4276 93.5678 11.5493 95.4863 8.12178C98.4012 2.91467 98.5164 2.54756 97.1744 2.74178C96.4959 2.84 95.7955 3.55423 95.0745 4.88311L93.9922 6.87689L93.5144 4.88311L93.0365 2.88889L90.1469 2.80623L87.2578 2.72356L86.9744 5.25067ZM58.9124 4.88889C59.0723 5.15156 58.59 5.33067 57.7337 5.32667C56.6369 5.32134 56.4442 5.21511 56.9414 4.88889C57.7928 4.33067 58.5725 4.33067 58.9124 4.88889ZM67.4361 5.08978C68.5898 6.50045 66.3862 9.12978 65.0165 7.97645C64.1475 7.24489 64.2277 5.472 65.1541 4.92445C66.2197 4.29467 66.8216 4.33823 67.4361 5.08978ZM76.1297 6.08178C76.2322 7.15422 76.0399 7.61867 75.3352 8.00133C74.181 8.62845 73.1477 7.90934 73.1477 6.47912C73.1477 4.07912 75.9037 3.712 76.1297 6.08178ZM69.4641 15.1831C69.2424 16.5884 69.0502 16.9089 68.6634 16.5164C67.6801 15.5187 65.2806 15.9142 63.9158 17.2991C62.3758 18.8618 62.2408 20.7044 63.5435 22.3844C64.5316 23.6591 66.8364 24.004 67.804 23.0222C68.2127 22.6076 68.3296 22.6076 68.3296 23.0222C68.3296 24.2542 69.6169 23.4698 69.825 22.1111C69.9463 21.3169 70.2507 19.3502 70.5017 17.7413C71.097 13.9218 71.0777 13.3333 70.3567 13.3333C69.9901 13.3333 69.6419 14.0556 69.4641 15.1831ZM72.2717 14.2222C72.2717 14.8916 72.5004 15.1316 73.0382 15.0267C73.46 14.944 73.8048 14.5822 73.8048 14.2222C73.8048 13.8622 73.46 13.5004 73.0382 13.4178C72.5004 13.3129 72.2717 13.5529 72.2717 14.2222ZM91.5762 17C91.2941 19.0164 90.9656 21.3169 90.846 22.1111C90.6826 23.1969 90.7917 23.5556 91.2853 23.5556C91.9634 23.5556 92.0242 23.3187 92.8468 17.4702C93.418 13.4084 93.4154 13.3333 92.6926 13.3333C92.2704 13.3333 91.9353 14.4333 91.5762 17ZM43.5855 18.1111C42.9193 20.4942 42.2724 22.7147 42.1476 23.0449C41.9982 23.4418 42.1931 23.5924 42.7222 23.4893C43.2877 23.3787 43.7892 22.4382 44.4287 20.2889L45.3341 17.2449L46.3879 20.4C46.9679 22.1356 47.5592 23.5516 47.702 23.5471C47.8452 23.5422 48.7506 22.1924 49.7142 20.5471L51.4662 17.5556L51.5959 20.5556C51.6936 22.824 51.8806 23.5556 52.3624 23.5556C52.881 23.5556 52.9993 22.648 52.9993 18.6667C52.9993 15.9778 52.8508 13.7778 52.6699 13.7778C52.4885 13.7778 51.3725 15.3907 50.1894 17.3618L48.0384 20.9462L47.5219 19.6951C47.2381 19.0071 46.6634 17.3947 46.2443 16.1111C45.8255 14.8276 45.3284 13.7778 45.1396 13.7778C44.9508 13.7778 44.2518 15.728 43.5855 18.1111ZM31.5775 21.3236C30.1097 24.2516 28.9087 26.7516 28.9087 26.8791C28.9087 27.0067 30.1899 27.1111 31.7558 27.1111H34.6028V21.5556C34.6028 18.5 34.5227 16 34.4246 16C34.3264 16 33.0453 18.3956 31.5775 21.3236ZM55.5936 17.2991C53.188 19.74 54.5047 23.5698 57.7398 23.5413C59.728 23.524 61.3074 22.4747 60.5313 21.6871C60.1248 21.2747 59.8896 21.2751 59.4818 21.6889C58.3465 22.8409 55.6273 22.0569 55.6273 20.5778C55.6273 20.1587 56.4696 20 58.6934 20C61.3937 20 61.7595 19.9009 61.7595 19.1711C61.7595 18.7151 61.3508 17.8151 60.8515 17.1711C59.558 15.5022 57.3102 15.5573 55.5936 17.2991ZM72.0707 16.5556C71.5626 18.1804 71.1517 23.1804 71.5078 23.4036C72.2621 23.8764 72.6129 22.8911 72.9178 19.4444C73.1324 17.02 73.0777 16 72.7334 16C72.4644 16 72.1662 16.2502 72.0707 16.5556ZM75.3041 17.2991C71.9769 20.6751 75.5126 25.0756 79.9163 23.0396C80.53 22.756 81.0319 22.256 81.0319 21.9284C81.0319 21.2364 79.8966 21.1244 79.4989 21.7778C79.1209 22.3982 76.4994 22.3342 75.8634 21.6889C75.0781 20.892 75.2292 18.904 76.1389 18.0689C77.0811 17.2036 78.9422 17.112 80.1419 17.872C81.4174 18.6804 81.8444 17.8293 80.6548 16.8507C79.0797 15.5551 76.838 15.7427 75.3041 17.2991ZM83.6263 17.2991C81.9947 18.9551 81.8821 21.1809 83.3595 22.5893C84.4686 23.6462 86.6731 23.876 87.5145 23.0222C87.9231 22.6076 88.0401 22.6076 88.0401 23.0222C88.0401 23.3156 88.3134 23.5556 88.6472 23.5556C89.0405 23.5556 89.3537 22.8111 89.535 21.4444C89.6892 20.2836 89.9262 18.5836 90.0615 17.6667C90.2577 16.3356 90.1671 16 89.6117 16C89.2293 16 88.9161 16.24 88.9161 16.5333C88.9161 16.948 88.7992 16.948 88.3905 16.5333C87.3923 15.5204 85.0003 15.9049 83.6263 17.2991ZM59.9198 17.8667C60.8637 18.8244 60.4805 19.1111 58.2554 19.1111C57.0509 19.1111 56.0653 18.9511 56.0653 18.7556C56.0653 17.4738 58.8905 16.8222 59.9198 17.8667ZM68.0747 17.6031C68.9976 17.9622 68.9774 20.3618 68.0427 21.4093C67.2197 22.3324 65.2605 22.4858 64.4751 21.6889C63.7235 20.9262 63.8264 19.0969 64.6744 18.1462C65.405 17.3271 66.7953 17.1049 68.0747 17.6031ZM87.9525 17.8667C89.3576 19.2924 87.9569 22.2222 85.8698 22.2222C84.4204 22.2222 83.66 21.4773 83.66 20.0573C83.66 17.8689 86.5176 16.4107 87.9525 17.8667ZM69.069 26.0649C68.4488 26.6938 68.7996 27.5556 69.6756 27.5556C70.288 27.5556 70.5376 27.3142 70.4421 26.8147C70.2858 25.9964 69.5381 25.5884 69.069 26.0649ZM44.3267 26.7556C43.3337 27.7631 43.7139 29.9711 45.1151 31.3333C45.8378 32.036 46.4291 32.9489 46.4291 33.3622C46.4291 35.0196 44.2093 35.4982 43.6298 33.9658C43.289 33.0649 42.487 33.1822 42.487 34.1333C42.487 35.3231 43.3678 36 44.9158 36C47.7861 36 48.6577 33.0556 46.4291 30.8889C44.9114 29.4138 44.6473 27.5556 45.9547 27.5556C46.4164 27.5556 46.8671 27.7782 46.9569 28.0507C47.0463 28.3231 47.4624 28.4729 47.8811 28.384C48.5837 28.2347 48.5889 28.1444 47.9494 27.2222C47.1864 26.1222 45.2027 25.8667 44.3267 26.7556ZM51.4036 28.8853C49.2424 29.7702 48.3607 33.0156 49.7391 35.012C50.2617 35.7698 50.8552 36 52.2836 36C54.471 36 56.1319 35.0209 55.3356 34.2009C54.9432 33.7964 54.5914 33.8409 53.8148 34.3929C52.464 35.3529 51.8709 35.2996 50.6997 34.1111L49.7142 33.1111L52.9993 32.8889C56.1906 32.6729 56.2813 32.6351 56.1731 31.5556C56.0456 30.2849 54.188 28.4307 53.0842 28.4724C52.676 28.488 51.92 28.6738 51.4036 28.8853ZM59.6093 28.8436C59.2698 29.0676 58.7477 29.156 58.449 29.0396C57.6676 28.7356 57.5151 29.1791 57.1656 32.7778C56.8945 35.5689 56.9462 36 57.5541 36C58.0267 36 58.2563 35.6013 58.258 34.7778C58.2624 32.5622 59.1148 30.2876 60.0539 29.9849C61.2255 29.6076 61.3793 29.8 62.4283 32.9533C62.9163 34.4209 63.5045 35.6347 63.7349 35.6502C64.0844 35.6738 67.8916 29.6493 67.8916 29.0733C67.8916 28.972 67.5999 28.8889 67.2434 28.8889C66.8868 28.8889 66.0226 29.9062 65.3231 31.1493L64.0507 33.4098L63.2654 31.2604C62.8335 30.0782 62.4655 29.0773 62.4476 29.036C62.2895 28.6738 60.0915 28.5244 59.6093 28.8436ZM73.2826 28.8933C71.0615 29.8009 70.1171 33.432 71.6546 35.156C72.5875 36.2018 76.0171 36.2902 77.3066 35.3018C78.6404 34.2791 77.3373 33.6751 75.7684 34.5884C74.7675 35.1716 74.3479 35.2009 73.3865 34.7564C72.3817 34.292 72.238 33.9871 72.3549 32.5671C72.4592 31.3022 72.7732 30.7578 73.7005 30.236C74.8017 29.6164 75.0308 29.6253 76.2576 30.3351C77.5423 31.0782 78.4039 31.0427 78.4039 30.2467C78.4039 29.7991 75.6554 28.4333 74.8336 28.4724C74.5086 28.488 73.8109 28.6773 73.2826 28.8933ZM81.6889 28.8644C79.2409 29.8813 78.2808 33.2542 79.9172 35.0889C81.3819 36.7316 86.2495 35.9564 85.2079 34.2467C85.0266 33.9489 84.5588 34.0333 83.8777 34.4862C82.6469 35.3044 81.2321 34.988 80.5782 33.7476C80.1502 32.9369 80.2969 32.8889 83.2066 32.8889H86.2881V31.588C86.2881 30.7116 85.9114 29.9858 85.1339 29.3658C83.9114 28.3898 83.112 28.2733 81.6889 28.8644ZM88.2902 29.1427C87.239 30.2098 87.4645 31.4258 88.9161 32.5147C89.6388 33.0569 90.2301 33.7693 90.2301 34.0973C90.2301 34.9671 89.0134 35.3018 88.235 34.6462C87.7142 34.2076 87.4479 34.2009 87.0397 34.6151C86.3376 35.3276 87.3454 35.984 89.157 35.9933C91.8617 36.0071 92.4114 33.6422 90.1259 31.8271C88.9985 30.9316 88.8189 30.5876 89.2499 30.1502C89.6717 29.7222 89.9091 29.7187 90.3177 30.1333C91.0286 30.8547 91.5442 30.8049 91.5442 30.0156C91.5442 29.3782 90.2779 28.4444 89.4141 28.4444C89.1745 28.4444 88.6691 28.7587 88.2902 29.1427ZM68.5762 31C68.4164 32.1609 68.175 33.7613 68.0397 34.5556C67.8531 35.6538 67.9516 36 68.451 36C69.1075 36 69.2876 35.3742 69.8903 31C70.1259 29.2884 70.0567 28.8889 69.5241 28.8889C69.0729 28.8889 68.776 29.5511 68.5762 31ZM54.5323 30.6667C55.3168 31.5462 55.2975 31.5556 52.7386 31.5409L50.1522 31.5258L51.1863 30.652C52.5026 29.5391 53.5306 29.5436 54.5323 30.6667ZM84.1269 30.2378C85.6126 31.0449 85.0428 31.556 82.6745 31.5409L80.3749 31.5258L81.4091 30.652C82.5912 29.6524 82.9487 29.5978 84.1269 30.2378Z" fill="#949494"/>
  </symbol>

  <symbol id="nnpc" viewBox="0 0 62 36">
    <path d="M22.3755 13.0724L0.111855 29.609C0.0279638 29.652 0 6.71887 0 6.71887L22.3755 13.0724Z" fill="#C4C4C4"/>
    <path d="M0.111328 29.609L22.3753 13.0726C22.4524 13.0184 22.3551 36 22.3551 36L0.111328 29.609Z" fill="#AFAFAF"/>
    <path d="M29.2842 6.35348L7.02055 22.8901C6.93666 22.9331 6.90869 0 6.90869 0L29.2842 6.35348Z" fill="#747474"/>
    <path d="M7.021 22.89L29.285 6.35361C29.3621 6.29942 29.2648 29.281 29.2648 29.281L7.021 22.89Z" fill="#949494"/>
    <path d="M58.6087 22.6262C58.4312 22.6175 58.2533 22.62 58.0763 22.6332C57.2615 22.6923 56.4554 23.0107 55.8393 23.5792C55.4559 23.9301 55.1497 24.3736 54.9554 24.8666C54.7107 25.4816 54.6407 26.167 54.7307 26.825C54.8029 27.3479 54.9876 27.8541 55.272 28.2905C55.4783 28.6096 55.7358 28.8914 56.0276 29.1254C56.5548 29.5496 57.1924 29.8137 57.8492 29.9096C58.5485 30.0091 59.2752 29.9331 59.9322 29.6577C60.4963 29.4237 61.0037 29.0421 61.396 28.5572C61.0426 28.1718 60.6888 27.7869 60.3351 27.4018C60.0577 27.6869 59.7465 27.9446 59.3872 28.1061C59.1252 28.2252 58.8406 28.287 58.5554 28.293C58.1871 28.303 57.8127 28.2309 57.4825 28.0557C57.2243 27.9177 56.9962 27.7163 56.8264 27.4698C56.5795 27.1106 56.4683 26.662 56.4775 26.2224C56.483 25.8064 56.5945 25.3849 56.8311 25.0471C57.0662 24.6991 57.4253 24.4514 57.8165 24.3403C58.1433 24.2473 58.4906 24.2337 58.8234 24.2983C59.3055 24.3919 59.7501 24.6653 60.0746 25.0491C60.4733 24.6642 60.8719 24.2791 61.2706 23.8942C60.9735 23.5108 60.5797 23.2193 60.1541 23.0128C59.6696 22.7786 59.1413 22.6524 58.6087 22.6262ZM31.3647 22.7464V29.8258H33.101C33.1013 28.3432 33.1004 26.8607 33.1015 25.3781C33.1518 25.4715 33.1915 25.5715 33.2467 25.6619C34.3452 27.0503 35.4453 28.4376 36.5443 29.8257C36.972 29.826 37.3997 29.8258 37.8273 29.8258V22.7464H36.091C36.0911 24.1251 36.0911 25.5039 36.091 26.8825C36.0414 26.7918 36.0002 26.6958 35.9462 26.608C34.9241 25.3204 33.9013 24.0335 32.8789 22.7464C32.3742 22.7466 31.8695 22.7464 31.3647 22.7464ZM47.7906 22.7944V29.8738H49.57V27.8985H50.4674C50.8684 27.8957 51.274 27.9181 51.6693 27.8326C52.2251 27.7236 52.7556 27.4425 53.1308 27.0047C53.5078 26.5712 53.7203 25.9963 53.7305 25.4173C53.7406 24.8487 53.6189 24.261 53.2974 23.7885C53.027 23.3837 52.6127 23.0915 52.158 22.9442C51.8323 22.8361 51.4884 22.7944 51.147 22.7945C50.0281 22.7942 48.9095 22.7944 47.7906 22.7944ZM39.5212 22.8425V29.9217H41.2573C41.2576 28.4392 41.2567 26.9566 41.2578 25.474C41.3082 25.5674 41.3478 25.6676 41.403 25.758C42.5015 27.1463 43.6017 28.5336 44.7007 29.9216C45.1283 29.9219 45.556 29.9217 45.9837 29.9217V22.8425H44.2473C44.2475 24.2212 44.2475 25.5999 44.2473 26.9785C44.1977 26.8878 44.1567 26.7918 44.1027 26.7039C43.0806 25.4164 42.0578 24.1295 41.0354 22.8425C40.5307 22.8426 40.0259 22.8425 39.5212 22.8425ZM49.5701 24.382C50.0384 24.3823 50.5068 24.3811 50.9751 24.3827C51.2011 24.386 51.442 24.4186 51.6281 24.5608C51.7905 24.6836 51.8739 24.8858 51.9023 25.0851C51.9442 25.3727 51.9278 25.6838 51.7819 25.9401C51.6759 26.1312 51.49 26.269 51.2838 26.3254C51.1143 26.3762 50.9362 26.3725 50.7614 26.3719H49.57C49.57 25.7087 49.57 25.0452 49.5701 24.382Z" fill="#949494"/>
  </symbol>

  <symbol id="rotary" viewBox="0 0 36 36">
    <g clip-path="url(#clip0_328_927)">
    <path d="M10.225 27.1885L9.0235 28.6128L8.65062 28.2885L9.89071 26.9057C9.69498 26.7242 9.54497 26.56 9.35353 26.39L9.63069 26.1128C10.1036 26.56 10.5193 26.9057 11.0408 27.3257L10.8008 27.6314C10.6108 27.4828 10.415 27.34 10.2236 27.1885H10.225ZM7.81912 23.6457L5.87182 24.7828C5.94183 24.9185 6.01612 25.08 6.10184 25.21L8.05343 24.07C7.9577 23.8985 7.90484 23.8057 7.81912 23.6457ZM9.06922 25.4614L8.01485 26.3728L8.55204 24.81C8.45631 24.6757 8.41345 24.5828 8.31345 24.46L6.4233 25.7428C6.50759 25.87 6.61045 25.9871 6.70046 26.1185L7.83769 25.3314L7.30479 26.9057C7.39766 27.01 7.49052 27.1685 7.62053 27.2742L9.36924 25.7742C9.27209 25.6714 9.15494 25.5785 9.06922 25.4614ZM11.6351 28.2557C11.9423 28.4228 12.2423 28.5971 12.5781 28.7557L12.7795 28.4228C12.3152 28.1828 11.878 27.9071 11.4866 27.6357L10.2036 29.52C10.6893 29.8428 11.1351 30.1114 11.6351 30.4L11.8423 30.0671L10.8065 29.4571L11.1565 28.9657L11.8423 29.3771L12.0423 29.0571C11.8223 28.9357 11.5923 28.7957 11.3523 28.65L11.6351 28.2557ZM17.9828 21.2342C16.2098 21.2342 14.7597 19.7785 14.7597 18.01C14.7597 16.2414 16.2084 14.78 17.9828 14.78C19.7572 14.78 21.2045 16.2271 21.2045 18.01C21.2045 19.7928 19.7615 21.2342 17.9828 21.2342ZM18.0228 20.1671C19.2 20.1671 20.1672 19.2 20.1672 18.0228C20.1672 17.0442 19.4872 16.1928 18.55 15.96C18.5385 15.8642 18.5128 15.4171 18.5128 15.4171H17.4313C17.4313 15.4171 17.407 15.9028 17.3985 16C16.4998 16.2728 15.894 17.0914 15.894 18.0242C15.894 19.2028 16.8613 20.1685 18.0242 20.1685L18.0228 20.1671ZM13.2853 5.82995V5.72424C13.2738 5.14138 13.721 4.65995 14.3082 4.61281C14.9297 4.55281 15.4812 5.00852 15.5326 5.63281V5.72281C15.5326 6.30567 15.0926 6.80281 14.4954 6.85852C13.8925 6.91138 13.3367 6.45709 13.2838 5.82852L13.2853 5.82995ZM13.6982 5.78995C13.7282 6.19138 14.0839 6.48424 14.4711 6.45138C14.8525 6.41281 15.1368 6.10709 15.1368 5.72424C15.1511 5.70566 15.1368 5.68281 15.1368 5.65852C15.104 5.25567 14.7554 4.97138 14.3539 5.00995C13.9725 5.03852 13.6839 5.34138 13.6982 5.72424V5.78995ZM18.3928 6.34709C18.2028 6.34567 18.1157 6.34566 17.9299 6.34566L18.4914 5.17995L19.0014 4.12138L19.5072 4.17424L19.7729 5.18138L20.1401 6.53424C19.9701 6.50281 19.8372 6.47709 19.6772 6.46852L19.5458 6.04424C19.2115 5.99281 18.91 5.97567 18.6 5.96281L18.3914 6.34995L18.3928 6.34709ZM18.7671 5.57995C19.0129 5.59138 19.2415 5.61852 19.4729 5.65138L19.3515 5.17852L19.1986 4.69281L18.97 5.17852L18.7671 5.57852V5.57995ZM16.5198 4.57281L16.7198 6.41852L17.2042 6.36709L17.0141 4.53424L17.7471 4.48852L17.7185 4.07709C16.8998 4.12424 16.5627 4.15709 15.7512 4.27852L15.8055 4.66852L16.5184 4.56995L16.5198 4.57281ZM16.597 29.5671L16.4327 30.9457L15.7712 29.4342C15.6155 29.4042 15.5197 29.3642 15.3626 29.3385L14.8425 31.5671C15.0025 31.61 15.1568 31.6271 15.3226 31.6557L15.6012 30.2871L16.2727 31.8114C16.4255 31.8342 16.597 31.8828 16.7741 31.8771L17.0227 29.5757C16.8927 29.5685 16.737 29.59 16.597 29.5657V29.5671ZM29.688 24.7814L28.0322 23.87L27.8207 24.2514L29.8066 25.36L30.5724 23.9885L30.2309 23.8057L29.688 24.7814ZM27.1921 25.1157L29.4466 25.8557C29.3937 25.9228 29.3508 25.9871 29.3037 26.0542C29.2651 26.1057 29.218 26.1557 29.1865 26.2228L28.7922 26.0814L28.1765 26.85L28.4008 27.2014C28.3093 27.3057 28.205 27.4185 28.0879 27.5342L27.1949 26.0542L26.8649 25.5085L27.1907 25.1157H27.1921ZM27.4478 25.6314L27.715 26.0542L27.9593 26.48L28.2893 26.0542L28.375 25.9485L27.4478 25.6328V25.6314ZM25.0791 28.6442C25.1762 28.8128 25.2219 29.0085 25.2305 29.2085C25.2305 29.3642 25.1976 29.5242 25.1334 29.6685C25.0276 29.8785 24.8719 30.0671 24.6547 30.1914C24.1247 30.5 23.4404 30.3157 23.1189 29.7714C23.1075 29.74 23.0932 29.7057 23.0718 29.6685C23.0075 29.5228 22.976 29.3642 22.9618 29.2085C22.976 28.8071 23.1703 28.4371 23.5304 28.23C24.0676 27.9257 24.7619 28.1071 25.0791 28.6457V28.6442ZM24.8233 29.2085C24.8233 29.0728 24.7876 28.9514 24.7233 28.8342C24.5362 28.4842 24.0904 28.3714 23.7432 28.5714C23.4989 28.7028 23.3746 28.9514 23.3746 29.2085C23.3818 29.3257 23.4104 29.4571 23.4804 29.5685C23.5004 29.6028 23.5232 29.64 23.5589 29.6771C23.7761 29.9371 24.1604 29.9985 24.4562 29.8257C24.5376 29.7857 24.6019 29.7328 24.6547 29.6771C24.7633 29.5457 24.8248 29.37 24.8248 29.2085H24.8233ZM25.912 26.5157L26.8492 27.5271L25.2748 27.0628C25.1434 27.1628 25.0562 27.1971 24.9405 27.2985L26.3092 29.1385C26.4263 29.0485 26.5478 28.9371 26.6563 28.8442L25.8248 27.7371L27.415 28.2157C27.525 28.1214 27.6807 28.0142 27.7879 27.88L26.202 26.2042C26.1177 26.2957 26.0206 26.4171 25.9106 26.5185L25.912 26.5157ZM35.9971 18.0214C35.9971 18.2314 35.9871 18.4428 35.9642 18.61L35.9585 18.6557L35.9099 18.6799C35.1442 19.1357 34.1555 19.3942 33.164 19.4228C33.1411 19.5485 33.0326 20.4442 33.014 20.57C33.9383 20.8371 34.8356 21.3414 35.4599 21.9885L35.4856 22.0285V22.07C35.437 22.4228 35.3113 22.8957 35.1727 23.2028L35.157 23.2514L35.1113 23.2585C34.2441 23.5085 33.2226 23.4985 32.2782 23.2642C32.2325 23.3814 31.8839 24.2142 31.8482 24.3357C32.6768 24.8585 33.4083 25.5785 33.8212 26.3471L33.8426 26.39L33.8283 26.4342C33.6998 26.74 33.4569 27.1828 33.2397 27.4485L33.2169 27.4885H33.1626C32.2782 27.4985 31.2896 27.2357 30.4266 26.7557C30.3481 26.8585 29.7723 27.62 29.6937 27.7228C30.3738 28.4228 30.8881 29.3114 31.0981 30.1857L31.1124 30.2314L31.0867 30.2628C30.8895 30.5314 30.5266 30.8857 30.2623 31.0985L30.2309 31.1257L30.1652 31.1128C29.3137 30.8857 28.4136 30.37 27.715 29.6942C27.6121 29.7728 26.8964 30.33 26.7906 30.41C27.2478 31.2471 27.525 32.2114 27.525 33.0814V33.2028L27.4721 33.2328C27.2078 33.4457 26.7706 33.6985 26.4577 33.8271L26.4263 33.84L26.3735 33.8228C25.6077 33.3771 24.8733 32.6485 24.3704 31.8142C24.249 31.8671 23.3804 32.24 23.2603 32.2914C23.3789 32.7557 23.4504 33.2428 23.4632 33.7228C23.4632 34.2085 23.3789 34.6928 23.2603 35.1314L23.2546 35.1742L23.2075 35.2C22.916 35.3214 22.426 35.4428 22.0845 35.5028L22.0317 35.51L22.0031 35.4728C21.3431 34.8442 20.8373 33.9514 20.5716 33.0185C20.4544 33.0271 19.5543 33.15 19.4272 33.1757C19.4115 34.1542 19.1429 35.1457 18.6771 35.9157L18.6514 35.9557L18.5985 35.9628C18.2857 36.01 17.7842 36.01 17.4442 35.9628L17.4013 35.9557L17.3713 35.9157C16.9198 35.1471 16.6513 34.1542 16.6298 33.1757C16.4955 33.1628 15.5469 33.0271 15.4154 33.0185C15.1554 33.9457 14.6454 34.8342 14.0039 35.47L13.9696 35.5028L13.9167 35.4957C13.5653 35.4442 13.1024 35.3085 12.7924 35.18L12.7552 35.1614L12.7395 35.1214C12.6081 34.6842 12.5409 34.1942 12.5409 33.7085C12.5409 33.2228 12.6095 32.7557 12.7295 32.2914C12.6081 32.2385 11.788 31.9071 11.6694 31.8528C11.1622 32.7014 10.4293 33.4385 9.65498 33.8685L9.61355 33.8914L9.56497 33.8785C9.24495 33.7357 8.82206 33.4928 8.54918 33.2885L8.51632 33.2557V33.1628C8.51632 32.2814 8.78491 31.3114 9.24495 30.4628C9.14351 30.3842 8.37774 29.8028 8.27201 29.7242C7.57053 30.4 6.6776 30.9085 5.81468 31.13L5.77039 31.1442L5.72324 31.1128C5.45893 30.9 5.12033 30.5571 4.90746 30.2885L4.87889 30.2414L4.89175 30.1957C5.12034 29.3257 5.63752 28.4371 6.31043 27.7471C6.23328 27.6428 5.65466 26.8928 5.5718 26.78C4.71745 27.2585 3.72022 27.5342 2.83444 27.5128H2.78729L2.75586 27.4828C2.5487 27.2085 2.30154 26.7714 2.16724 26.4614L2.14724 26.4157L2.16724 26.3742C2.61299 25.5942 3.34162 24.8742 4.17312 24.3757C4.11883 24.2471 3.76451 23.4099 3.70451 23.2914C2.75872 23.5271 1.73149 23.5342 0.86714 23.2914L0.825708 23.2785L0.799991 23.2399C0.682839 22.9485 0.554257 22.4571 0.501396 22.1128L0.492824 22.0585L0.522826 22.0185C1.15288 21.3771 2.0358 20.87 2.98159 20.59C2.97159 20.4571 2.83301 19.5042 2.81872 19.3728C1.8315 19.36 0.838566 19.1042 0.0670759 18.6457L0.0285014 18.62L0.0242153 18.5671C0.00278505 18.4071 -0.00292969 18.1971 -0.00292969 17.9857C-0.00292969 17.7742 0.00278505 17.5757 0.0242153 17.4028L0.0285014 17.35L0.0670759 17.3285C0.838566 16.8728 1.8315 16.61 2.81872 16.5957C2.83872 16.4657 2.95588 15.5385 2.97159 15.4128C2.0358 15.1442 1.14288 14.6328 0.50854 13.9942L0.482823 13.9628L0.491395 13.9128C0.531399 13.5571 0.665695 13.08 0.798563 12.7842L0.812849 12.7414L0.858567 12.7285C1.71292 12.4771 2.74586 12.4842 3.69451 12.7171C3.74737 12.6014 4.09311 11.7657 4.14597 11.64C3.30733 11.1328 2.57299 10.4114 2.13581 9.63281L2.11295 9.58424L2.13581 9.53709C2.27297 9.22424 2.52013 8.80138 2.71443 8.53567L2.74586 8.49567H2.79872C3.69451 8.48281 4.68316 8.75709 5.53465 9.22852C5.61466 9.13281 6.19613 8.34709 6.27471 8.24281C5.59894 7.53709 5.08605 6.65424 4.86603 5.77995L4.85603 5.74281L4.8746 5.70424C5.09176 5.43281 5.45036 5.07995 5.71324 4.87281L5.7561 4.84709L5.79467 4.85424C6.67617 5.07995 7.56339 5.60281 8.25487 6.27567C8.35631 6.19567 9.04779 5.66138 9.15066 5.58424C8.67347 4.74995 8.40774 3.77995 8.40774 2.91566V2.78566L8.4506 2.75424C8.71062 2.55138 9.14923 2.29995 9.46354 2.17281L9.4964 2.15138L9.54926 2.17424C10.3207 2.60995 11.0465 3.33995 11.5537 4.17566C11.6751 4.12995 12.5752 3.73852 12.6981 3.68995C12.5809 3.22424 12.5081 2.74138 12.5152 2.26424C12.5152 1.76709 12.5752 1.29424 12.7067 0.857093L12.7124 0.802808L12.7595 0.789951C13.051 0.668522 13.5353 0.538522 13.8753 0.485665L13.9296 0.478522L13.9696 0.512808C14.6111 1.13709 15.124 2.03138 15.394 2.97424C15.5254 2.96138 16.4712 2.84138 16.5984 2.81852C16.6184 1.84709 16.8841 0.855665 17.3484 0.0856648L17.3685 0.0456648L17.417 0.0328076C17.7556 -0.00719238 18.2557 -0.00719238 18.5843 0.0328076L18.6271 0.0456648L18.6543 0.0856648C19.1214 0.855665 19.39 1.84852 19.39 2.80995C19.5329 2.84138 20.4558 2.96138 20.5873 2.97424C20.8644 2.03138 21.3716 1.14424 22.0188 0.517093L22.0488 0.485665L22.0917 0.498522C22.4431 0.537093 22.9203 0.668522 23.2261 0.801379L23.2632 0.815665L23.2789 0.868522C23.4104 1.30138 23.4747 1.77281 23.4747 2.26138C23.4675 2.74424 23.3961 3.22995 23.2789 3.69709C23.3961 3.74424 24.2947 4.12138 24.4204 4.17281C24.9191 3.33709 25.6348 2.61281 26.4149 2.17138L26.4592 2.14852L26.5063 2.16995C26.8149 2.30138 27.2464 2.54995 27.5121 2.75852L27.5521 2.78281V2.90424C27.5521 3.78995 27.2778 4.75709 26.8149 5.58138C26.9149 5.65852 27.6564 6.23995 27.7679 6.32566C28.4665 5.64709 29.3565 5.12709 30.2309 4.91138L30.2695 4.88995L30.3081 4.93138C30.5724 5.12709 30.9267 5.49709 31.1281 5.76138L31.1653 5.79995L31.1495 5.84424C30.9267 6.71995 30.3995 7.60852 29.728 8.30281C29.8066 8.40995 30.3652 9.14567 30.4509 9.25138C31.321 8.78281 32.3068 8.51567 33.1997 8.53138H33.2411L33.2697 8.57138C33.4869 8.84852 33.7355 9.27852 33.8555 9.57281L33.8855 9.62995L33.8555 9.67281C33.4126 10.4457 32.684 11.1614 31.8482 11.6714C31.8982 11.7985 32.2382 12.6371 32.3039 12.7542C33.2411 12.5185 34.2727 12.5128 35.1256 12.7542L35.177 12.7642L35.197 12.8128C35.3156 13.11 35.4542 13.5914 35.4999 13.9457L35.507 13.9885L35.4727 14.0228C34.8456 14.6728 33.9526 15.1814 33.014 15.4457C33.0326 15.5757 33.1497 16.49 33.1711 16.6214C34.1598 16.6428 35.1442 16.9071 35.9099 17.36L35.9585 17.3885L35.9642 17.4342C35.9871 17.6014 35.9971 17.8042 35.9971 18.02V18.0214ZM8.95207 7.52138L10.4308 9.16852C10.6379 9.39138 10.8651 9.36281 11.1637 9.12995C13.0324 7.66424 15.4297 6.79852 17.9842 6.79852C20.5387 6.79852 22.9403 7.66138 24.8262 9.12995C25.1205 9.34709 25.3419 9.39138 25.5591 9.16852L27.0378 7.52138C27.2049 7.33852 27.2049 7.08852 26.8849 6.81995C24.4047 4.88852 21.3431 3.69709 17.9785 3.69709C14.6139 3.69709 11.528 4.88852 9.09065 6.82852C8.77205 7.08852 8.78634 7.33995 8.95207 7.52138ZM9.05208 14.4471C8.88921 14.3414 8.71633 14.2214 8.57347 14.2842C8.45774 14.32 8.37345 14.44 8.31345 14.6371C7.62053 17.0171 7.62053 19.0342 8.31345 21.3814C8.36059 21.5342 8.41345 21.6871 8.55204 21.7257C8.66633 21.7728 8.83349 21.7257 9.05208 21.5742L13.6296 18.4557C13.7996 18.3414 13.9025 18.1785 13.9025 18.0157C13.9025 17.8385 13.7982 17.6828 13.6296 17.5628L9.05208 14.4457V14.4471ZM10.0536 11.7185C10.075 11.8857 10.265 11.97 10.4308 12.0485L15.4197 14.4714C15.6183 14.5657 15.8026 14.5657 15.9526 14.4885C16.0926 14.3971 16.1841 14.2371 16.1969 14.0242L16.5998 8.49138C16.6212 8.22424 16.5841 8.06709 16.4884 7.98567C16.3827 7.89424 16.2269 7.91995 16.0769 7.94852C13.6867 8.52281 11.9437 9.53424 10.2265 11.3242C10.0879 11.4814 10.0236 11.6128 10.055 11.7185H10.0536ZM10.1264 24.3714C10.1264 24.4657 10.1907 24.5842 10.3122 24.71C12.0295 26.5171 13.7696 27.5214 16.1584 28.0828C16.3112 28.13 16.4612 28.1528 16.567 28.0685C16.6755 27.9885 16.7055 27.8214 16.6884 27.5614C16.6884 27.5528 16.2827 22.0171 16.2827 22.0171C16.2655 21.8071 16.1855 21.6471 16.0383 21.5628C15.8898 21.4757 15.704 21.4757 15.5054 21.5657L10.5222 23.9914C10.3479 24.0728 10.1593 24.1642 10.1336 24.3271C10.1336 24.3371 10.1279 24.3585 10.1279 24.3728L10.1264 24.3714ZM17.9842 21.5828C19.9572 21.5828 21.5602 19.9814 21.5602 18.01C21.5602 16.0385 19.9572 14.4342 17.9842 14.4271C16.0126 14.4271 14.4096 16.0371 14.4096 18.01C14.4096 19.9828 16.0126 21.5828 17.9842 21.5828ZM19.4958 27.9885C19.5801 28.0542 19.7186 28.0742 19.9315 28.0214C22.3146 27.45 24.0633 26.44 25.7663 24.6528C25.8677 24.5357 25.9791 24.4142 25.9448 24.28C25.9134 24.1514 25.8048 24.0342 25.572 23.9242L20.5759 21.5C20.3858 21.41 20.203 21.4099 20.0501 21.4899C19.9029 21.5828 19.8144 21.74 19.8001 21.9585L19.3958 27.4885C19.3915 27.67 19.37 27.8757 19.4958 27.9871V27.9885ZM26.9464 21.5428C27.0949 21.6385 27.2664 21.7557 27.4235 21.7014C27.5293 21.67 27.6207 21.5528 27.6793 21.3442C28.3779 18.9742 28.3779 16.9485 27.6793 14.6057C27.6364 14.4585 27.5678 14.3071 27.445 14.2514C27.3207 14.2071 27.1635 14.2585 26.9392 14.41L22.3588 17.5242C22.1817 17.6428 22.0917 17.8057 22.0917 17.9742C22.0917 18.1428 22.1817 18.3042 22.3588 18.4214L26.9478 21.5428H26.9464ZM25.9363 11.63C25.942 11.5357 25.8834 11.4157 25.7505 11.2842C24.049 9.48424 22.3017 8.47709 19.9044 7.90709C19.7701 7.87281 19.6143 7.84138 19.5101 7.93281C19.4029 8.01852 19.3715 8.18424 19.3929 8.43281L19.7886 13.9785C19.8015 14.1885 19.8958 14.3542 20.0358 14.44C20.1901 14.5271 20.3744 14.5114 20.5658 14.4185L25.5605 12.0085C25.7205 11.9314 25.902 11.8457 25.9377 11.6757C25.9377 11.6657 25.9434 11.6514 25.9377 11.63H25.9363ZM4.61029 21.5271L6.73618 20.91C6.93477 20.8514 7.09906 20.6428 7.08335 20.3828C6.32043 16.4242 7.29051 13.2142 9.61069 10.6414C9.845 10.4742 9.87071 10.13 9.64641 9.89567L8.102 8.34281C7.95199 8.17138 7.67911 8.17138 7.44481 8.40995C4.48314 11.5271 2.98731 16.3114 4.08454 21.2014C4.14454 21.4357 4.33027 21.6085 4.61172 21.5271H4.61029ZM31.0367 22.6642L28.9051 21.9371C28.7936 21.8957 28.5022 21.8957 28.3508 22.27C26.6292 26.3971 22.6232 29.2214 17.9842 29.2214C13.3453 29.2214 9.25924 26.3328 7.61196 22.2057C7.48909 21.8957 7.1905 21.8957 7.0762 21.9371L4.95746 22.6642C4.72745 22.7471 4.58886 22.9514 4.70887 23.2457C6.7919 28.5571 11.968 32.3071 17.9828 32.3071C23.9975 32.3071 29.1965 28.5314 31.2853 23.2228C31.3939 22.9457 31.2638 22.7471 31.0353 22.6642H31.0367ZM28.5736 8.38709C28.365 8.13138 28.0193 8.16995 27.9193 8.34852L26.3792 9.89567C26.1534 10.13 26.1749 10.4742 26.4092 10.6414C28.7336 13.2142 29.7051 16.4171 28.9422 20.3828C28.9251 20.6428 29.0894 20.8514 29.2923 20.91L31.421 21.5271C31.7039 21.6071 31.8853 21.4357 31.9468 21.1928C33.0426 16.31 31.5424 11.51 28.5736 8.38852V8.38709ZM23.6118 7.80995L24.1018 6.86567L25.4248 6.25138C25.2862 6.15138 25.1362 6.08138 24.9962 5.98995L24.0861 6.40567L23.9175 5.41566C23.7261 5.32566 23.6132 5.28566 23.4146 5.20566L23.6804 6.64424L23.1903 7.57709L23.6147 7.80995H23.6118ZM21.133 29.2242C20.473 29.3685 19.9644 29.4885 19.31 29.59L19.37 29.97C19.6129 29.9314 19.8344 29.9028 20.0887 29.8714L20.4187 31.7014L20.9044 31.61L20.5101 29.7842C20.7602 29.7228 20.9902 29.6585 21.2388 29.6014L21.1316 29.2242H21.133ZM14.6497 29.5442V29.6685C14.6139 29.9714 14.4096 30.2785 14.0768 30.3171L14.1539 31.3728C13.9996 31.3371 13.8253 31.2871 13.661 31.2171L13.6439 30.2242L13.1967 30.0328L12.8352 30.9085C12.6881 30.86 12.5424 30.8128 12.3995 30.7428L12.8581 29.6771L12.9124 29.5457L13.2853 28.6657L14.3011 29.0585C14.5268 29.1385 14.6311 29.34 14.6482 29.5471L14.6497 29.5442ZM14.2239 29.5442C14.2111 29.48 14.1853 29.43 14.1068 29.3942L13.5381 29.1842L13.4096 29.5442L13.3653 29.6757L13.361 29.6842L13.8782 29.8785C14.021 29.9414 14.1568 29.8157 14.2068 29.6771C14.2239 29.6385 14.2382 29.5914 14.2239 29.5457V29.5442ZM21.1188 6.76281C20.9373 6.70995 20.803 6.68709 20.603 6.63138L20.9702 5.37567L21.2388 4.47995C21.6274 4.57709 21.996 4.70281 22.366 4.82281C22.5746 4.88709 22.686 5.12424 22.7074 5.37567C22.7217 5.71852 22.5517 6.08995 22.206 6.16709L22.3403 7.17852C22.1788 7.11138 22.0588 7.06138 21.8788 6.98995L21.7617 6.10567L21.3273 5.97281L21.1159 6.76281H21.1188ZM21.4288 5.57852L21.936 5.74281C22.0745 5.78281 22.2588 5.56567 22.2588 5.37567C22.2588 5.28567 22.2274 5.20566 22.106 5.17852C21.9188 5.10566 21.7902 5.07424 21.5845 5.02281L21.4802 5.37567L21.4273 5.57852H21.4288ZM18.9657 30.6214L19.4558 31.8114C19.2957 31.8185 19.1457 31.8342 19.0029 31.8514L18.8514 31.4671L17.8699 31.4942L17.7571 31.8971C17.5999 31.8828 17.4542 31.8785 17.2984 31.8785L17.7213 30.6214L18.0228 29.6685L18.0371 29.6385L18.5371 29.6157L18.5628 29.6757L18.9657 30.6214ZM18.6686 31.0542L18.4928 30.6214L18.3157 30.1528L18.1614 30.6214L18.0085 31.0828L18.6686 31.0542ZM21.6688 29.0328L22.4189 31.1757C22.566 31.1242 22.7217 31.08 22.8703 31.0157L22.1417 28.8828C21.9417 28.9514 21.8502 28.9785 21.6688 29.0328ZM10.7765 6.43852L10.6508 6.21281C10.9808 6.00281 11.3365 5.82138 11.678 5.63852C12.0809 5.41567 12.6495 5.95424 12.6095 6.43852C12.6024 6.52281 12.5781 6.60138 12.5266 6.67995L13.351 7.27995C13.1953 7.35281 13.0781 7.41424 12.8924 7.49567L12.1709 6.96852L11.7723 7.18138L12.1966 7.88281C12.0323 7.98709 11.9323 8.05281 11.7409 8.16424L10.7736 6.43995L10.7765 6.43852ZM11.2737 6.33138L11.3365 6.43852L11.5651 6.83566L12.0409 6.58566C12.0852 6.56424 12.1109 6.50852 12.1195 6.43852C12.1295 6.22424 11.9737 5.93281 11.748 6.06852C11.5723 6.15995 11.4651 6.22424 11.2737 6.33281V6.33138Z" fill="#949494"/>
    <path d="M28.9721 23.3029L28.9964 23.2571C29.0307 23.1929 29.0507 23.1514 29.0536 23.1329C29.0578 23.1143 29.055 23.0971 29.0478 23.0814C29.0393 23.0657 29.0278 23.0543 29.0136 23.0457C28.9978 23.0371 28.9821 23.0357 28.9664 23.0371C28.9493 23.04 28.9335 23.0471 28.9193 23.06C28.905 23.0729 28.8821 23.1114 28.8478 23.1757L28.8235 23.22L28.9735 23.3L28.9721 23.3029ZM29.2236 23.5814L28.675 23.2871L28.735 23.1757C28.7907 23.0714 28.8221 23.0143 28.8307 23.0014C28.8521 22.9657 28.8778 22.9414 28.8993 22.9271C28.9207 22.9129 28.9478 22.9043 28.9778 22.9043C29.0093 22.9043 29.0393 22.91 29.0678 22.9257C29.1078 22.9471 29.135 22.9786 29.1493 23.0186C29.1636 23.06 29.1607 23.1057 29.1436 23.1557C29.1593 23.1414 29.1721 23.1329 29.185 23.1286C29.1979 23.1229 29.2179 23.12 29.2479 23.1143C29.255 23.1143 29.2836 23.1114 29.335 23.1086L29.4807 23.1029L29.4064 23.2414L29.2921 23.2386C29.215 23.2386 29.165 23.2429 29.1378 23.2557C29.1121 23.2671 29.0907 23.29 29.0736 23.3214L29.0578 23.35L29.2836 23.47L29.2236 23.5814ZM28.6578 22.9757C28.6192 23.0471 28.6007 23.1243 28.6007 23.2086C28.6007 23.2929 28.6249 23.3714 28.6721 23.4443C28.7178 23.5171 28.7778 23.5743 28.8507 23.6129C28.9235 23.6514 29.0021 23.67 29.0878 23.6686C29.1736 23.6671 29.2521 23.6443 29.3236 23.5971C29.3964 23.5514 29.4507 23.4914 29.4893 23.42C29.5279 23.3471 29.5464 23.2686 29.545 23.1843C29.5436 23.0986 29.5193 23.02 29.4736 22.9486C29.4279 22.8757 29.3693 22.8214 29.2964 22.7814C29.2236 22.7429 29.1436 22.7243 29.0578 22.7271C28.9707 22.7286 28.8921 22.7529 28.8221 22.7986C28.7521 22.8457 28.6978 22.9043 28.6592 22.9757M28.5564 22.9229C28.6035 22.8343 28.6721 22.7614 28.7607 22.7029C28.8478 22.6457 28.945 22.6157 29.0536 22.6129C29.1607 22.6114 29.2607 22.6343 29.3507 22.6814C29.4407 22.73 29.5136 22.8 29.5707 22.8886C29.6279 22.9771 29.6579 23.0757 29.6593 23.1814C29.6607 23.2871 29.6379 23.3857 29.5893 23.4757C29.5407 23.5643 29.4736 23.6386 29.3836 23.6957C29.295 23.7529 29.1964 23.7829 29.0907 23.7843C28.985 23.7857 28.8864 23.7629 28.7964 23.7157C28.7064 23.6671 28.6307 23.5971 28.5749 23.5071C28.5164 23.4157 28.4878 23.3186 28.4878 23.2129C28.4878 23.1086 28.5092 23.01 28.5564 22.9229Z" fill="#949494"/>
    </g>
    <defs>
    <clipPath id="clip0_328_927">
    <rect width="36" height="36" fill="white"/>
    </clipPath>
    </defs>
  </symbol>

  <symbol id="zenith" viewBox="0 0 34 36">
    <g clip-path="url(#clip0_328_922)">
    <path fill-rule="evenodd" clip-rule="evenodd" d="M3.43628 9.94445C3.40451 10.0181 3.47896 9.78914 3.50045 9.71134L3.58421 9.40801C4.44884 6.27201 5.3131 3.136 6.17773 0L33.9998 0.0544797L3.25244 25.0566L17.3034 8.13148L6.74801 8.16141C6.55296 8.162 6.35772 8.16141 6.16305 8.17445C4.91119 8.28073 3.82656 9.03908 3.43627 9.94422" fill="#949494"/>
    <path fill-rule="evenodd" clip-rule="evenodd" d="M32.49 17.1405C32.5216 17.0668 31.6491 22.4681 30.1101 28.0516L1.07422 28.2137L32.4332 2.82361L18.3795 19.9086L28.9349 19.8787C29.1299 19.8781 29.3252 19.8787 29.5199 19.8656C30.7718 19.7594 32.0997 18.0459 32.49 17.1408" fill="#949494"/>
    <path fill-rule="evenodd" clip-rule="evenodd" d="M4.94104 36H0L3.41526 31.3633H1.15035L1.31441 30.0813H6.01963L2.61271 34.71H5.10606L4.94104 36ZM5.87273 36L6.63068 30.0813H10.0558L9.88995 31.3788H7.95057L7.81893 32.4052H9.64731L9.48497 33.6749H7.6566L7.52851 34.6741H9.4678L9.29817 36H5.87273ZM10.3055 36L11.0631 30.0813H12.5334L14.2552 33.1257C14.2875 33.1878 14.3381 33.3119 14.4081 33.4995C14.4763 33.6874 14.5498 33.9095 14.6286 34.1689C14.6295 33.9233 14.6355 33.7053 14.646 33.5134C14.656 33.323 14.6713 33.1535 14.6906 33.0041L15.0648 30.0813H16.5268L15.7692 36H14.3068L12.5867 32.9434C12.5516 32.8813 12.4996 32.7573 12.43 32.5697C12.3614 32.3818 12.2891 32.1623 12.2122 31.9085C12.2107 32.1569 12.2045 32.3763 12.1942 32.5682C12.1842 32.7587 12.1689 32.9283 12.1496 33.0776L11.7754 36H10.3055ZM17.0061 36L17.7638 30.0813H19.3032L18.5451 36H17.0061ZM20.5797 36L21.1584 31.4808H19.9058L20.085 30.0813H24.1139L23.9347 31.4808H22.682L22.1035 36H20.5797ZM24.1 36L24.8577 30.0813H26.3815L26.087 32.3818H28.1177L28.4122 30.0813H29.9395L29.1816 36H27.6543L27.9629 33.5906H25.9322L25.6236 36H24.1Z" fill="#949494"/>
    </g>
    <defs>
    <clipPath id="clip0_328_922">
    <rect width="34" height="36" fill="white"/>
    </clipPath>
    </defs>
  </symbol>
</svg>