<svg xmlns="http://www.w3.org/2000/svg" >
  <symbol id="logo-main" viewBox="0 0 253 59">
    <path d="M204.844 15.1098H227.123V20.9729H219.648V38.8537H212.319V20.9729H204.844V15.1098Z" fill="var(--color-1, currentColor)"/>
    <path d="M179.688 38.8537V15.1098H192.106C194.409 15.1098 196.169 15.3042 197.386 15.6929C198.603 16.0816 199.585 16.805 200.33 17.8632C201.076 18.9105 201.449 20.1901 201.449 21.7017C201.449 23.019 201.164 24.1582 200.594 25.1192C200.023 26.0694 199.239 26.8414 198.241 27.4352C197.605 27.8132 196.734 28.1263 195.626 28.3746C196.514 28.6662 197.161 28.9577 197.567 29.2492C197.841 29.4436 198.236 29.8593 198.751 30.4964C199.278 31.1334 199.629 31.6247 199.804 31.9702L203.406 38.8537H194.985L191.004 31.5977C190.5 30.6583 190.05 30.0483 189.655 29.7675C189.118 29.4004 188.509 29.2169 187.83 29.2169H186.875V38.8537H179.688ZM186.875 24.7304H190.313C190.653 24.7304 191.311 24.6225 192.287 24.4065C192.781 24.3093 193.181 24.061 193.488 23.6615C193.806 23.262 193.965 22.8031 193.965 22.2848C193.965 21.5182 193.718 20.9297 193.225 20.5194C192.731 20.1091 191.805 19.9039 190.445 19.9039H186.875V24.7304Z" fill="var(--color-1, currentColor)"/>
    <path d="M169.398 34.9342H161.032L159.881 38.8537H152.375L161.308 15.1098H169.317L178.25 38.8537H170.565L169.398 34.9342ZM167.858 29.7999L165.231 21.2644L162.621 29.7999H167.858Z" fill="var(--color-1, currentColor)"/>
    <path d="M130.812 15.1098L150.938 15.1098V20.1793L138.205 20.1793V23.953H149.5V28.7957H138.205V33.4765H150.938V38.8537H130.812V15.1098Z" fill="var(--color-1, currentColor)"/>
    <path d="M106.375 10.0732L114.281 15.1098V23.0244H122.188V10.0732L129.375 5.03662V38.8537L122.188 38.8537V29.5H114.281V51.0854L106.375 56.122L106.375 10.0732Z" fill="var(--color-1, currentColor)"/>
    <path d="M82.6562 15.1097H93.7721C95.9633 15.1097 97.7306 15.4012 99.074 15.9843C100.428 16.5673 101.546 17.4041 102.427 18.4947C103.308 19.5853 103.946 20.854 104.343 22.3008C104.739 23.7477 104.938 25.281 104.938 26.9006C104.938 29.4381 104.64 31.4086 104.046 32.8123C103.462 34.2052 102.647 35.3767 101.601 36.3269C100.555 37.2663 99.4319 37.8926 98.2317 38.2057C96.591 38.6376 95.1045 38.8536 93.7721 38.8536H82.6562V15.1097ZM90.1384 20.4869V33.4602H91.9718C93.5354 33.4602 94.6475 33.2928 95.3082 32.9581C95.9688 32.6125 96.4864 32.0187 96.8608 31.1765C97.2351 30.3235 97.4223 28.9468 97.4223 27.0464C97.4223 24.5305 97.0039 22.8083 96.167 21.8797C95.3302 20.9511 93.9428 20.4869 92.0048 20.4869H90.1384Z" fill="var(--color-2, currentColor)"/>
    <path d="M55.3438 26.9982C55.3438 23.0225 56.4794 19.9273 58.7506 17.7124C61.0218 15.4976 64.1845 14.3901 68.2387 14.3901C72.395 14.3901 75.5975 15.481 77.846 17.6626C80.0945 19.8331 81.2188 22.8786 81.2188 26.7989C81.2188 29.645 80.7248 31.9816 79.7368 33.8089C78.7601 35.6251 77.3406 37.0426 75.4782 38.0614C73.6272 39.0692 71.3162 39.5731 68.5453 39.5731C65.729 39.5731 63.3953 39.1356 61.5442 38.2608C59.7045 37.3859 58.2112 36.0016 57.0642 34.1079C55.9172 32.2142 55.3438 29.8443 55.3438 26.9982ZM63.0603 27.0314C63.0603 29.4899 63.5259 31.2563 64.4571 32.3305C65.3996 33.4047 66.6772 33.9418 68.2898 33.9418C69.9478 33.9418 71.231 33.4158 72.1395 32.3637C73.048 31.3116 73.5022 29.4235 73.5022 26.6992C73.5022 24.4068 73.0253 22.7346 72.0714 21.6826C71.1288 20.6194 69.8456 20.0879 68.2216 20.0879C66.6658 20.0879 65.4167 20.625 64.4741 21.6992C63.5315 22.7734 63.0603 24.5508 63.0603 27.0314Z" fill="var(--color-2, currentColor)"/>
    <path d="M28.0313 26.9982C28.0313 23.0225 29.1669 19.9273 31.4381 17.7124C33.7093 15.4976 36.872 14.3901 40.9262 14.3901C45.0825 14.3901 48.285 15.481 50.5335 17.6626C52.782 19.8331 53.9062 22.8786 53.9062 26.7989C53.9062 29.645 53.4123 31.9816 52.4243 33.8089C51.4476 35.6251 50.0281 37.0426 48.1657 38.0614C46.3147 39.0692 44.0037 39.5731 41.2328 39.5731C38.4165 39.5731 36.0828 39.1356 34.2317 38.2608C32.392 37.3859 30.8987 36.0016 29.7517 34.1079C28.6047 32.2142 28.0313 29.8443 28.0313 26.9982ZM35.7478 27.0314C35.7478 29.4899 36.2134 31.2563 37.1446 32.3305C38.0871 33.4047 39.3647 33.9418 40.9773 33.9418C42.6353 33.9418 43.9185 33.4158 44.827 32.3637C45.7355 31.3116 46.1897 29.4235 46.1897 26.6992C46.1897 24.4068 45.7128 22.7346 44.7589 21.6826C43.8163 20.6194 42.5331 20.0879 40.9091 20.0879C39.3533 20.0879 38.1042 20.625 37.1616 21.6992C36.219 22.7734 35.7478 24.5508 35.7478 27.0314Z" fill="var(--color-2, currentColor)"/>
    <path d="M14.7991 30.3371V25.2706H26.5938V35.6528C24.3359 37.1699 22.3365 38.2054 20.5953 38.7591C18.8655 39.3017 16.8098 39.5731 14.4284 39.5731C11.4966 39.5731 9.10401 39.0803 7.25057 38.0946C5.40836 37.109 3.97615 35.6417 2.95395 33.6926C1.94298 31.7435 1.4375 29.5065 1.4375 26.9816C1.4375 24.3238 1.99353 22.0148 3.1056 20.0546C4.21766 18.0834 5.84644 16.5884 7.99194 15.5695C9.66565 14.7833 11.9179 14.3901 14.7486 14.3901C17.4782 14.3901 19.517 14.6338 20.8649 15.121C22.2241 15.6083 23.3474 16.3669 24.2348 17.3968C25.1335 18.4156 25.8074 19.7113 26.2568 21.2839L18.8935 22.5796C18.5903 21.6604 18.0735 20.9572 17.3434 20.4699C16.6245 19.9827 15.7034 19.739 14.5801 19.739C12.9064 19.739 11.5696 20.3149 10.5699 21.4666C9.58141 22.6073 9.08716 24.4179 9.08716 26.8985C9.08716 29.5342 9.58702 31.4169 10.5868 32.5464C11.5977 33.676 13.0018 34.2408 14.7991 34.2408C15.6528 34.2408 16.4672 34.119 17.2423 33.8753C18.0174 33.6317 18.9048 33.2164 19.9045 32.6295V30.3371H14.7991Z" fill="var(--color-2, currentColor)"/>
    <path d="M98.5294 52.5243V44.6269H99.5461V51.6033H102.781V52.5243H98.5294Z" fill="var(--color-2, currentColor)"/>
    <path d="M90.4661 52.5243L92.9849 44.6269H94.2905L96.8093 52.5243H95.7116L95.1686 50.7629H92.0259L91.4829 52.5243H90.4661ZM92.3032 49.8419H94.8797L93.8052 46.3307C93.7821 46.2386 93.7552 46.1235 93.7243 45.9853C93.6935 45.8472 93.6666 45.7244 93.6435 45.617C93.6281 45.5095 93.6204 45.4558 93.6204 45.4558H93.5741C93.5741 45.4558 93.5626 45.5133 93.5395 45.6285C93.5241 45.7359 93.501 45.8587 93.4702 45.9969C93.447 46.135 93.4201 46.2463 93.3893 46.3307L92.3032 49.8419Z" fill="var(--color-2, currentColor)"/>
    <path d="M86.3205 52.6624C85.2961 52.6624 84.5181 52.3247 83.9866 51.6494C83.4628 50.9663 83.2009 49.9417 83.2009 48.5756C83.2009 47.2018 83.4628 46.1772 83.9866 45.5018C84.5181 44.8265 85.2961 44.4888 86.3205 44.4888C86.8597 44.4888 87.3373 44.6001 87.7532 44.8226C88.1692 45.0375 88.4927 45.3675 88.7238 45.8127C88.9626 46.2501 89.082 46.8066 89.082 47.4819H88.0421C88.0421 46.7912 87.8842 46.277 87.5684 45.9393C87.2603 45.5939 86.8443 45.4213 86.3205 45.4213C85.6273 45.4213 85.1112 45.6592 84.7723 46.135C84.4334 46.6109 84.2639 47.3284 84.2639 48.2878V48.8634C84.2639 49.8228 84.4334 50.5403 84.7723 51.0162C85.1112 51.492 85.6273 51.7299 86.3205 51.7299C86.852 51.7299 87.2757 51.5611 87.5915 51.2234C87.915 50.8857 88.0768 50.3753 88.0768 49.6923H89.082C89.082 50.3677 88.9626 50.9279 88.7238 51.3731C88.4927 51.8105 88.1692 52.1367 87.7532 52.3516C87.3373 52.5588 86.8597 52.6624 86.3205 52.6624Z" fill="var(--color-2, currentColor)"/>
    <path d="M79.9711 52.5243V44.6269H80.9879V52.5243H79.9711Z" fill="var(--color-2, currentColor)"/>
    <path d="M72.2092 52.5243V44.6269H74.6702C75.6099 44.6269 76.3455 44.9492 76.877 45.5939C77.4085 46.2309 77.6742 47.1865 77.6742 48.4605C77.6742 49.8112 77.4085 50.8281 76.877 51.5112C76.3455 52.1866 75.6099 52.5243 74.6702 52.5243H72.2092ZM73.2259 51.6033H74.5778C75.2017 51.6033 75.6946 51.3692 76.0567 50.9011C76.4264 50.4252 76.6113 49.7076 76.6113 48.7483V48.1727C76.6113 47.2901 76.4264 46.6339 76.0567 46.2041C75.6946 45.7666 75.2017 45.5479 74.5778 45.5479H73.2259V51.6033Z" fill="var(--color-2, currentColor)"/>
    <path d="M64.9662 52.5243V44.6269H69.8536V45.5479H65.983V48.023H69.3452V48.944H65.983V51.6033H69.9229V52.5243H64.9662Z" fill="var(--color-2, currentColor)"/>
    <path d="M56.0625 52.5243V44.6269H57.6107L59.0088 49.8074C59.0473 49.9532 59.082 50.1259 59.1128 50.3254C59.1436 50.525 59.1705 50.7207 59.1936 50.9126C59.2245 51.1044 59.2437 51.2656 59.2514 51.3961C59.2668 51.5189 59.2745 51.5803 59.2745 51.5803H59.3207C59.3207 51.5803 59.3246 51.515 59.3323 51.3846C59.3477 51.2541 59.367 51.0929 59.3901 50.9011C59.4132 50.7092 59.4401 50.5135 59.4709 50.3139C59.5018 50.1144 59.5364 49.9455 59.5749 49.8074L60.9845 44.6269H62.5212V52.5243H61.5045V46.7912C61.5045 46.7221 61.5083 46.6224 61.516 46.4919C61.5237 46.3537 61.5314 46.2156 61.5391 46.0774C61.5545 45.9393 61.5661 45.8203 61.5738 45.7206C61.5815 45.6208 61.5853 45.5709 61.5853 45.5709H61.5391C61.5391 45.5709 61.5276 45.6208 61.5045 45.7206C61.489 45.8203 61.4659 45.9393 61.4351 46.0774C61.4043 46.2156 61.3735 46.3537 61.3427 46.4919C61.3196 46.6224 61.2965 46.7221 61.2734 46.7912L59.6905 52.5243H58.7777L57.1948 46.7912C57.1794 46.7375 57.1563 46.6454 57.1255 46.5149C57.1024 46.3844 57.0754 46.2463 57.0446 46.1005C57.0215 45.9546 56.9984 45.8319 56.9753 45.7321C56.9599 45.6246 56.9522 45.5709 56.9522 45.5709H56.9059C56.9059 45.5709 56.9098 45.6246 56.9175 45.7321C56.9252 45.8319 56.9329 45.9546 56.9406 46.1005C56.9483 46.2386 56.956 46.3729 56.9637 46.5034C56.9714 46.6339 56.9753 46.7298 56.9753 46.7912V52.5243H56.0625Z" fill="var(--color-2, currentColor)"/>
    <path d="M192.118 52.6624C191.644 52.6624 191.204 52.5857 190.798 52.4322C190.392 52.2787 190.067 52.0293 189.822 51.6839C189.585 51.3385 189.466 50.8742 189.466 50.2909C189.466 50.2525 189.466 50.2103 189.466 50.1643C189.474 50.1106 189.478 50.076 189.478 50.0607H190.522C190.522 50.0683 190.519 50.1029 190.511 50.1643C190.511 50.218 190.511 50.2641 190.511 50.3024C190.511 50.7859 190.66 51.1467 190.959 51.3846C191.257 51.6148 191.628 51.7299 192.072 51.7299C192.6 51.7299 193.006 51.6187 193.289 51.3961C193.58 51.1658 193.725 50.8397 193.725 50.4176C193.725 50.1336 193.649 49.9033 193.496 49.7268C193.35 49.5503 193.155 49.4045 192.91 49.2894C192.673 49.1742 192.409 49.0706 192.118 48.9785C191.827 48.8864 191.533 48.7867 191.234 48.6792C190.943 48.5718 190.675 48.4336 190.431 48.2648C190.193 48.0959 189.998 47.881 189.845 47.6201C189.7 47.3515 189.627 47.0138 189.627 46.607C189.627 46.1235 189.738 45.7244 189.96 45.4097C190.189 45.0951 190.492 44.8648 190.867 44.719C191.249 44.5655 191.67 44.4888 192.13 44.4888C192.589 44.4888 193.002 44.5655 193.369 44.719C193.744 44.8648 194.043 45.1028 194.265 45.4328C194.487 45.7551 194.598 46.1811 194.598 46.7106V46.8488H193.553V46.6761C193.553 46.2693 193.419 45.9585 193.151 45.7436C192.883 45.5287 192.55 45.4213 192.152 45.4213C191.739 45.4213 191.391 45.5095 191.108 45.686C190.832 45.8626 190.695 46.1427 190.695 46.5264C190.695 46.795 190.767 47.0138 190.913 47.1826C191.066 47.3515 191.261 47.4935 191.498 47.6086C191.743 47.716 192.011 47.8158 192.302 47.9079C192.593 48 192.883 48.0998 193.174 48.2072C193.465 48.3147 193.729 48.4528 193.966 48.6216C194.211 48.7905 194.406 49.0054 194.552 49.2663C194.705 49.5196 194.781 49.8458 194.781 50.2449C194.781 50.8358 194.663 51.3078 194.425 51.6609C194.196 52.0139 193.882 52.271 193.484 52.4322C193.086 52.5857 192.631 52.6624 192.118 52.6624Z" fill="var(--color-1, currentColor)"/>
    <path d="M184.691 52.5243V45.5479H182.544V44.6269H187.848V45.5479H185.701V52.5243H184.691Z" fill="var(--color-1, currentColor)"/>
    <path d="M175.418 52.5243V44.6269H176.291L179.218 49.5887C179.279 49.6884 179.344 49.8227 179.413 49.9916C179.489 50.1604 179.555 50.3139 179.608 50.4521C179.669 50.5826 179.7 50.6478 179.7 50.6478L179.734 50.6363C179.734 50.6363 179.731 50.5672 179.723 50.4291C179.723 50.2909 179.719 50.1374 179.711 49.9686C179.704 49.7997 179.7 49.6731 179.7 49.5887V44.6269H180.607V52.5243H179.769L176.819 47.4934C176.757 47.3783 176.685 47.2402 176.6 47.079C176.524 46.9102 176.455 46.7605 176.394 46.63C176.34 46.4996 176.313 46.4343 176.313 46.4343L176.279 46.4458C176.279 46.4458 176.283 46.5111 176.291 46.6415C176.298 46.772 176.306 46.9217 176.313 47.0905C176.321 47.2517 176.325 47.386 176.325 47.4934V52.5243H175.418Z" fill="var(--color-1, currentColor)"/>
    <path d="M167.407 52.5243L169.909 44.6269H171.207L173.709 52.5243H172.619L172.079 50.7629H168.957L168.417 52.5243H167.407ZM169.232 49.8419H171.792L170.724 46.3307C170.701 46.2386 170.675 46.1235 170.644 45.9853C170.613 45.8472 170.587 45.7244 170.564 45.617C170.548 45.5095 170.541 45.4558 170.541 45.4558H170.495C170.495 45.4558 170.483 45.5133 170.46 45.6285C170.445 45.7359 170.422 45.8587 170.392 45.9969C170.369 46.135 170.342 46.2463 170.311 46.3307L169.232 49.8419Z" fill="var(--color-1, currentColor)"/>
    <path d="M163.798 52.5243V45.5479H161.651V44.6269H166.955V45.5479H164.808V52.5243H163.798Z" fill="var(--color-1, currentColor)"/>
    <path d="M156.767 52.5243V44.6269H157.777V51.6033H160.991V52.5243H156.767Z" fill="var(--color-1, currentColor)"/>
    <path d="M151.649 52.6624C150.838 52.6624 150.203 52.4322 149.744 51.9717C149.285 51.5112 149.055 50.8397 149.055 49.9571V44.6269H150.065V50.0146C150.065 50.5749 150.207 51.0008 150.49 51.2925C150.773 51.5841 151.159 51.7299 151.649 51.7299C152.147 51.7299 152.533 51.5841 152.809 51.2925C153.092 51.0008 153.233 50.5749 153.233 50.0146V44.6269H154.244V49.9571C154.244 50.8397 154.014 51.5112 153.555 51.9717C153.096 52.4322 152.46 52.6624 151.649 52.6624Z" fill="var(--color-1, currentColor)"/>
    <path d="M144.178 52.6624C143.703 52.6624 143.263 52.5857 142.857 52.4322C142.452 52.2787 142.127 52.0293 141.882 51.6839C141.644 51.3385 141.526 50.8742 141.526 50.2909C141.526 50.2525 141.526 50.2103 141.526 50.1643C141.534 50.1106 141.537 50.076 141.537 50.0607H142.582C142.582 50.0683 142.578 50.1029 142.57 50.1643C142.57 50.218 142.57 50.2641 142.57 50.3024C142.57 50.7859 142.72 51.1467 143.018 51.3846C143.317 51.6148 143.688 51.7299 144.132 51.7299C144.66 51.7299 145.065 51.6187 145.349 51.3961C145.639 51.1658 145.785 50.8397 145.785 50.4176C145.785 50.1336 145.708 49.9033 145.555 49.7268C145.41 49.5503 145.215 49.4045 144.97 49.2894C144.732 49.1742 144.468 49.0706 144.178 48.9785C143.887 48.8864 143.592 48.7867 143.294 48.6792C143.003 48.5718 142.735 48.4336 142.49 48.2648C142.253 48.0959 142.058 47.881 141.905 47.6201C141.759 47.3515 141.687 47.0138 141.687 46.607C141.687 46.1235 141.798 45.7244 142.019 45.4097C142.249 45.0951 142.551 44.8648 142.926 44.719C143.309 44.5655 143.73 44.4888 144.189 44.4888C144.648 44.4888 145.062 44.5655 145.429 44.719C145.804 44.8648 146.102 45.1028 146.324 45.4328C146.546 45.7551 146.657 46.1811 146.657 46.7106V46.8488H145.613V46.6761C145.613 46.2693 145.479 45.9585 145.211 45.7436C144.943 45.5287 144.61 45.4213 144.212 45.4213C143.799 45.4213 143.451 45.5095 143.167 45.686C142.892 45.8626 142.754 46.1427 142.754 46.5264C142.754 46.795 142.827 47.0138 142.972 47.1826C143.125 47.3515 143.32 47.4935 143.558 47.6086C143.803 47.716 144.07 47.8158 144.361 47.9079C144.652 48 144.943 48.0998 145.234 48.2072C145.525 48.3147 145.789 48.4528 146.026 48.6216C146.271 48.7905 146.466 49.0054 146.611 49.2663C146.764 49.5196 146.841 49.8458 146.841 50.2449C146.841 50.8358 146.722 51.3078 146.485 51.6609C146.255 52.0139 145.942 52.271 145.544 52.4322C145.146 52.5857 144.69 52.6624 144.178 52.6624Z" fill="var(--color-1, currentColor)"/>
    <path d="M134.147 52.5243V44.6269H135.019L137.947 49.5887C138.008 49.6884 138.073 49.8227 138.142 49.9916C138.218 50.1604 138.283 50.3139 138.337 50.4521C138.398 50.5826 138.429 50.6478 138.429 50.6478L138.463 50.6363C138.463 50.6363 138.459 50.5672 138.452 50.4291C138.452 50.2909 138.448 50.1374 138.44 49.9686C138.433 49.7997 138.429 49.6731 138.429 49.5887V44.6269H139.336V52.5243H138.498L135.547 47.4934C135.486 47.3783 135.414 47.2402 135.329 47.079C135.253 46.9102 135.184 46.7605 135.123 46.63C135.069 46.4996 135.042 46.4343 135.042 46.4343L135.008 46.4458C135.008 46.4458 135.012 46.5111 135.019 46.6415C135.027 46.772 135.035 46.9217 135.042 47.0905C135.05 47.2517 135.054 47.386 135.054 47.4934V52.5243H134.147Z" fill="var(--color-1, currentColor)"/>
    <path d="M128.767 52.6624C127.802 52.6624 127.045 52.3247 126.494 51.6494C125.943 50.9663 125.667 49.9417 125.667 48.5756C125.667 47.2018 125.943 46.1772 126.494 45.5018C127.045 44.8265 127.802 44.4888 128.767 44.4888C129.731 44.4888 130.489 44.8265 131.04 45.5018C131.591 46.1772 131.866 47.2018 131.866 48.5756C131.866 49.9417 131.591 50.9663 131.04 51.6494C130.489 52.3247 129.731 52.6624 128.767 52.6624ZM128.767 51.7299C129.402 51.7299 129.899 51.492 130.259 51.0162C130.626 50.5403 130.81 49.8228 130.81 48.8634V48.2878C130.81 47.3284 130.626 46.6109 130.259 46.135C129.899 45.6592 129.402 45.4213 128.767 45.4213C128.139 45.4213 127.642 45.6592 127.274 46.135C126.907 46.6109 126.723 47.3284 126.723 48.2878V48.8634C126.723 49.8228 126.907 50.5403 127.274 51.0162C127.642 51.492 128.139 51.7299 128.767 51.7299Z" fill="var(--color-1, currentColor)"/>
    <path d="M120.974 52.6624C119.957 52.6624 119.184 52.3247 118.656 51.6494C118.135 50.9663 117.875 49.9417 117.875 48.5756C117.875 47.2018 118.135 46.1772 118.656 45.5018C119.184 44.8265 119.957 44.4888 120.974 44.4888C121.51 44.4888 121.985 44.6001 122.398 44.8226C122.811 45.0375 123.133 45.3675 123.362 45.8127C123.599 46.2501 123.718 46.8066 123.718 47.4819H122.685C122.685 46.7912 122.528 46.277 122.214 45.9393C121.908 45.5939 121.495 45.4213 120.974 45.4213C120.286 45.4213 119.773 45.6592 119.436 46.135C119.099 46.6109 118.931 47.3284 118.931 48.2878V48.8634C118.931 49.8228 119.099 50.5403 119.436 51.0162C119.773 51.492 120.286 51.7299 120.974 51.7299C121.502 51.7299 121.923 51.5611 122.237 51.2234C122.559 50.8857 122.719 50.3753 122.719 49.6923H123.718C123.718 50.3677 123.599 50.9279 123.362 51.3731C123.133 51.8105 122.811 52.1367 122.398 52.3516C121.985 52.5588 121.51 52.6624 120.974 52.6624Z" fill="var(--color-1, currentColor)"/>
    <path d="M227.62 11.4475C206.403 -5.0177 186.241 23.2757 219.048 49.6172L219.785 50.7987C220.143 51.3706 219.588 52.0759 218.949 51.8626L217.61 51.416C167.308 16.5807 210.484 -16.2706 228.702 10.5588C229.159 11.2324 228.263 11.9465 227.62 11.4475Z" fill="var(--color-2, currentColor)"/>
    <path d="M211.501 58.2515C273.313 57.8917 251.392 1.76968 224.438 25.1539C222.78 26.5929 223.72 28.3916 227.673 26.5929C250.313 19.7576 260.735 51.7757 212.22 56.4527C210.063 56.6605 210.548 58.257 211.501 58.2515Z" fill="var(--color-1, currentColor)"/>
  </symbol>
  <symbol id="logo-icon" viewBox="0 0 46 47">
    <path d="M26.9514 8.76408C9.91134 -4.68689 -6.28152 18.4269 20.0664 39.9462L20.6588 40.9114C20.9456 41.3786 20.5002 41.9548 19.9868 41.7805L18.912 41.4157C-21.4876 12.9576 13.1887 -13.8798 27.8201 8.03807C28.1874 8.58833 27.4678 9.17172 26.9514 8.76408Z" fill="var(--color-2, currentColor)"/>
    <path d="M14.0032 47C63.6467 46.7061 46.0406 0.858128 24.3937 19.9615C23.0616 21.1371 23.8165 22.6065 26.9914 21.1371C45.1747 15.553 53.5448 41.7097 14.5805 45.5305C12.8488 45.7003 13.2376 47.0045 14.0032 47Z" fill="var(--color-1, currentColor)"/>
  </symbol>
</svg>