<svg xmlns="http://www.w3.org/2000/svg">
  <symbol id="ambulance" viewBox="0 0 24 24">
    <path d="M9.13182 7.34895C9.50469 7.34928 9.80753 7.632 9.80778 7.98027V9.40814H11.2838C11.6565 9.40873 11.9596 9.69127 11.9597 10.0395C11.9597 10.3878 11.6566 10.6702 11.2838 10.6708H9.80778V12C9.8075 12.3482 9.50467 12.631 9.13182 12.6313C8.75868 12.6313 8.45615 12.3484 8.45587 12V10.6708H6.97987C6.60655 10.6708 6.30391 10.3881 6.30391 10.0395C6.30406 9.69091 6.60664 9.40814 6.97987 9.40814H8.45587V7.98027C8.45612 7.6318 8.75866 7.34895 9.13182 7.34895Z" fill="currentColor"/>
    <path fill-rule="evenodd" clip-rule="evenodd" d="M14.1513 4C15.3168 4 16.2623 4.88305 16.2623 5.97164V7.34895H18.2862C19.0853 7.34902 19.8166 7.77144 20.1741 8.43896L21.9287 11.7176C21.9314 11.7226 21.9328 11.7286 21.9353 11.7337C21.946 11.7551 21.9536 11.7776 21.9617 11.8002C21.9681 11.818 21.9756 11.8353 21.9802 11.8533C21.9856 11.8746 21.9877 11.8965 21.9908 11.9186C21.9937 11.9393 21.9967 11.9596 21.9974 11.9803C21.9976 11.9868 22 11.9934 22 12V16.0197C21.9997 17.1081 21.0544 17.9901 19.889 17.9901H19.0453C18.7415 19.1435 17.6307 20 16.3019 20C14.9732 20 13.8624 19.1435 13.5585 17.9901H9.72196C9.41816 19.1434 8.30698 19.9997 6.97855 20C5.6498 20 4.53766 19.1436 4.23381 17.9901H4.11103C2.94568 17.9901 2.00031 17.1081 2 16.0197V5.97164C2 4.88306 2.94548 4 4.11103 4H14.1513ZM6.97855 15.9778C6.16883 15.9778 5.5111 16.5863 5.50122 17.3403C5.50141 17.3465 5.50386 17.3526 5.50386 17.3588C5.50386 17.3642 5.50136 17.3695 5.50122 17.3748C5.51119 18.1288 6.16892 18.7374 6.97855 18.7374C7.79402 18.737 8.45581 18.1193 8.45587 17.3576C8.45587 16.5958 7.79409 15.9782 6.97855 15.9778ZM16.3019 15.9778C15.4944 15.9778 14.838 16.583 14.8246 17.3342C14.8249 17.3424 14.8286 17.3505 14.8286 17.3588C14.8286 17.3662 14.8262 17.3737 14.8259 17.381C14.8394 18.1322 15.4945 18.7374 16.3019 18.7374C17.1178 18.7373 17.7792 18.1195 17.7793 17.3576C17.7793 16.5956 17.1178 15.9778 16.3019 15.9778ZM4.11103 5.26264C3.69212 5.26264 3.3519 5.58039 3.3519 5.97164V16.0197C3.35221 16.4108 3.6923 16.7275 4.11103 16.7275H4.23249C4.53529 15.5727 5.64877 14.7152 6.97855 14.7152C8.30801 14.7155 9.42052 15.5729 9.72328 16.7275H13.5572C13.7448 16.0123 14.2415 15.4118 14.9104 15.058V5.97164C14.9104 5.58039 14.5702 5.26264 14.1513 5.26264H4.11103ZM16.2623 14.7164C16.2755 14.7162 16.2887 14.7152 16.3019 14.7152C17.6317 14.7152 18.7438 15.5728 19.0467 16.7275H19.889C20.3077 16.7275 20.6478 16.4108 20.6481 16.0197V12.6313H16.2623V14.7164ZM16.2623 11.3687H20.2309L18.9648 9.0037C18.8363 8.76393 18.5732 8.61165 18.2862 8.61159H16.2623V11.3687Z" fill="currentColor"/>
  </symbol>

  <symbol id="chevron-down" viewBox="0 0 24 24">
    <path fill-rule="evenodd" clip-rule="evenodd" d="M12.6316 17.7225C12.2827 18.0925 11.7172 18.0925 11.3684 17.7225L2.26162 8.06383C1.91279 7.69385 1.91279 7.09411 2.26162 6.72413L2.6827 6.27748C3.03153 5.90751 3.59709 5.90751 3.94592 6.27748L12 14.8197L20.0541 6.27748C20.4029 5.90751 20.9684 5.90751 21.3172 6.27748L21.7384 6.72413C22.0872 7.09411 22.0872 7.69385 21.7384 8.06383L12.6316 17.7225Z" fill="currentColor"/>
  </symbol>

  <symbol id="approval" viewBox="0 0 24 24">
    <path fill-rule="evenodd" clip-rule="evenodd" d="M11.3179 2.28998C11.6904 1.90334 12.3096 1.90334 12.6821 2.28998L13.7883 3.43824C14.0318 3.69085 14.395 3.78821 14.7321 3.6912L16.2642 3.25002C16.7801 3.10145 17.3164 3.41068 17.4458 3.93167L17.8296 5.47902C17.9141 5.81969 18.1803 6.08587 18.521 6.17038L20.0683 6.55421C20.5893 6.68355 20.899 7.21989 20.7504 7.73577L20.3088 9.26786C20.2118 9.60501 20.3092 9.96824 20.5618 10.2117L21.71 11.3179C22.0967 11.6904 22.0967 12.3096 21.71 12.6821L20.5618 13.7883C20.3091 14.0318 20.2117 14.3954 20.3088 14.7326L20.7504 16.2642C20.899 16.7801 20.5893 17.3164 20.0683 17.4458L18.521 17.8296C18.1803 17.9141 17.9141 18.1803 17.8296 18.521L17.4458 20.0683C17.3165 20.5894 16.7801 20.899 16.2642 20.7504L14.7321 20.3088C14.3949 20.2118 14.0318 20.3095 13.7883 20.5622L12.6821 21.71C12.3096 22.0967 11.6904 22.0967 11.3179 21.71L10.2117 20.5622C9.96825 20.3095 9.60507 20.2118 9.26786 20.3088L7.73577 20.7504C7.21988 20.899 6.68354 20.5894 6.55421 20.0683L6.17038 18.521C6.08587 18.1803 5.81969 17.9141 5.47902 17.8296L3.93167 17.4458C3.41067 17.3164 3.10099 16.7801 3.24956 16.2642L3.6912 14.7326C3.78832 14.3954 3.69091 14.0318 3.43824 13.7883L2.28998 12.6821C1.90334 12.3096 1.90334 11.6904 2.28998 11.3179L3.43824 10.2117C3.69083 9.96824 3.78821 9.60501 3.6912 9.26786L3.24956 7.73577C3.10098 7.21989 3.41066 6.68355 3.93167 6.55421L5.47902 6.17038C5.81969 6.08587 6.08587 5.81969 6.17038 5.47902L6.55421 3.93167C6.68357 3.41068 7.2199 3.10145 7.73577 3.25002L9.26786 3.6912C9.60502 3.78821 9.96824 3.69085 10.2117 3.43824L11.3179 2.28998ZM16.458 8.96264C16.0881 8.59278 15.4886 8.59279 15.1187 8.96264L10.8161 13.2653L8.88125 11.3304C8.51139 10.9605 7.91187 10.9605 7.542 11.3304C7.17214 11.7002 7.17214 12.2998 7.542 12.6696L10.1465 15.2741C10.5164 15.6439 11.1159 15.644 11.4858 15.2741L16.458 10.3019C16.8278 9.93205 16.8278 9.33251 16.458 8.96264Z" fill="currentColor"/>
  </symbol>

  <symbol id="arrow-left" viewBox="0 0 24 24">
    <path d="M5.64268 13.0922L12.5332 20.1346C12.7461 20.3526 12.8537 20.6086 12.856 20.9026C12.8585 21.1966 12.7534 21.4535 12.5407 21.6732C12.3278 21.8936 12.0766 22.0025 11.7871 22C11.4976 21.9974 11.2455 21.8874 11.0309 21.67L2.32657 12.7735C2.2126 12.6557 2.12973 12.5332 2.07796 12.4061C2.02599 12.2787 2 12.1437 2 12.0009C2 11.8582 2.02599 11.7235 2.07796 11.5968C2.12973 11.4698 2.2126 11.3477 2.32657 11.2303L11.0384 2.3261C11.2587 2.1087 11.5109 2 11.7952 2C12.0793 2 12.3278 2.1087 12.5407 2.3261C12.7534 2.54883 12.8598 2.80581 12.8598 3.09703C12.8598 3.38846 12.7534 3.6433 12.5407 3.86155L5.64268 10.9116H20.9257C21.2315 10.9116 21.487 11.0151 21.6922 11.222C21.8974 11.429 22 11.6889 22 12.0019C22 12.3149 21.8974 12.5748 21.6922 12.7818C21.487 12.9887 21.2315 13.0922 20.9257 13.0922H5.64268Z" fill="currentColor"/>
  </symbol>

  <symbol id="arrow-right" viewBox="0 0 24 24">
    <path d="M18.3559 13.0884H3.06716C2.76061 13.0884 2.50617 12.9849 2.30383 12.778C2.10128 12.571 2 12.3111 2 11.9981C2 11.6851 2.10128 11.4252 2.30383 11.2182C2.50617 11.0113 2.76061 10.9078 3.06716 10.9078H18.3559L11.4628 3.86544C11.2498 3.64783 11.142 3.39149 11.1393 3.09643C11.1363 2.80116 11.2415 2.54418 11.4547 2.3255C11.6681 2.10597 11.9196 1.99748 12.2092 2.00004C12.4989 2.0026 12.751 2.11258 12.9657 2.32998L21.6733 11.2265C21.7873 11.3443 21.8702 11.4668 21.922 11.5939C21.974 11.7213 22 11.8563 22 11.9991C22 12.1418 21.974 12.2765 21.922 12.4032C21.8702 12.5302 21.7873 12.6523 21.6733 12.7697L12.9582 21.6662C12.7379 21.8887 12.4855 22 12.2011 22C11.9169 22 11.6683 21.8881 11.4553 21.6643C11.2425 21.4465 11.1361 21.1921 11.1361 20.9011C11.1361 20.6103 11.2425 20.3561 11.4553 20.1384L18.3559 13.0884Z" fill="currentColor"/>
  </symbol>

  <symbol id="blood-donation" viewBox="0 0 24 24">
    <path d="M4.81446 13.7636V9.53089C4.81446 9.24128 4.58005 9.00632 4.29128 9.00623C4.00244 9.00623 3.7681 9.24122 3.7681 9.53089V15.4173C3.76817 15.8663 3.92382 16.299 4.20495 16.6432L4.33358 16.7852L7.02631 19.4864C7.37144 19.8325 7.37206 20.3938 7.02717 20.74C6.68194 21.0863 6.12146 21.0863 5.77621 20.74L4.91115 19.8725C4.3982 19.3581 3.7252 18.6824 3.08348 18.0388C2.38991 17.3434 2.00008 16.4007 2 15.4173V9.53089C2 8.26197 3.02594 7.23312 4.29128 7.23312C5.55656 7.23322 6.58256 8.26203 6.58256 9.53089V13.7636C6.58256 14.2532 6.1866 14.65 5.69851 14.6502C5.21026 14.6502 4.81446 14.2533 4.81446 13.7636Z" fill="currentColor"/>
    <path d="M20.2319 15.4173V9.53089C20.2319 9.2413 19.9975 9.00636 19.7087 9.00623C19.4199 9.00623 19.1855 9.24121 19.1855 9.53089V13.7636C19.1855 14.2532 18.7897 14.6502 18.3015 14.6502C17.8132 14.6502 17.4174 14.2533 17.4174 13.7636V9.53089C17.4174 8.26198 18.4433 7.23312 19.7087 7.23312C20.974 7.23326 22 8.26206 22 9.53089V15.4173C21.9999 16.4006 21.6102 17.3442 20.9165 18.0397L20.9157 18.0388C20.2741 18.6823 19.6017 19.3582 19.0889 19.8725C18.8324 20.1297 18.6152 20.3467 18.4629 20.4994C18.387 20.5755 18.327 20.6357 18.286 20.6768C18.2654 20.6974 18.25 20.7138 18.2393 20.7245C18.234 20.7298 18.23 20.7339 18.2272 20.7366L18.2238 20.7392L18.2229 20.74C17.8777 21.0862 17.3181 21.0863 16.9728 20.74C16.6277 20.3938 16.6276 19.8326 16.9728 19.4864L16.9737 19.4855L16.9771 19.4829C16.9798 19.4802 16.9839 19.4761 16.9892 19.4708C16.9999 19.4602 17.0153 19.4438 17.0359 19.4232L19.6664 16.7852L19.7942 16.6432C20.0754 16.299 20.2318 15.8665 20.2319 15.4173Z" fill="currentColor"/>
    <path d="M9.73868 20.1134V17.1698C9.73857 16.6566 9.53505 16.1648 9.1732 15.8019L7.35416 13.9769C7.14989 13.7723 6.81846 13.7721 6.61429 13.9769C6.41013 14.1816 6.41031 14.514 6.61429 14.7188L7.60971 15.7171C7.95476 16.0633 7.95489 16.6245 7.60971 16.9707C7.26453 17.3168 6.70485 17.3167 6.35961 16.9707L5.36419 15.9725C4.46972 15.0752 4.46955 13.6204 5.36419 12.7232C6.25884 11.826 7.7095 11.8262 8.60427 12.7232L10.4233 14.5474C11.1167 15.2428 11.5067 16.1863 11.5068 17.1698V20.1134C11.5068 20.6031 11.111 21 10.6227 21C10.1345 20.9999 9.73868 20.603 9.73868 20.1134Z" fill="currentColor"/>
    <path d="M12.4926 20.1134V17.1698C12.4927 16.1863 12.8827 15.2428 13.5761 14.5474L15.3951 12.7232C16.2898 11.8262 17.7406 11.8261 18.6352 12.7232C19.5298 13.6204 19.5297 15.0752 18.6352 15.9725L17.6398 16.9707C17.2945 17.3167 16.7349 17.3168 16.3897 16.9707C16.0446 16.6246 16.0447 16.0633 16.3897 15.7171L17.3851 14.7188C17.5891 14.514 17.5893 14.1816 17.3851 13.9769C17.181 13.7721 16.8495 13.7722 16.6452 13.9769L14.8262 15.8019C14.4644 16.1648 14.2608 16.6566 14.2607 17.1698V20.1134C14.2607 20.6031 13.8649 21 13.3767 21C12.8884 21 12.4926 20.6031 12.4926 20.1134Z" fill="currentColor"/>
    <path d="M13.9598 9.41191C13.9598 9.21668 13.8561 8.82117 13.5972 8.23966C13.3533 7.6919 13.0208 7.08387 12.6778 6.50725C12.4549 6.13253 12.2295 5.77862 12.0294 5.47005C11.8294 5.77851 11.6047 6.13271 11.3819 6.50725C11.0389 7.08386 10.7064 7.69192 10.4625 8.23966C10.2036 8.82113 10.0999 9.21669 10.0999 9.41191C10.0999 9.96827 10.3121 10.495 10.6783 10.8777C11.0433 11.259 11.5306 11.4664 12.0303 11.4664C12.53 11.4663 13.0173 11.2591 13.3823 10.8777C13.7484 10.495 13.9598 9.96823 13.9598 9.41191ZM15.7279 9.41191C15.7279 10.4154 15.3466 11.385 14.6574 12.1053C13.967 12.8267 13.0229 13.2394 12.0303 13.2395C11.0375 13.2395 10.0927 12.8269 9.4023 12.1053C8.71309 11.385 8.33182 10.4155 8.33177 9.41191C8.33177 8.81256 8.57949 8.11993 8.84804 7.51674C9.13174 6.87961 9.50289 6.20494 9.86332 5.59905C10.2255 4.99023 10.5865 4.43443 10.8562 4.032C10.9912 3.83038 11.1039 3.66581 11.1834 3.5515C11.2231 3.49435 11.2549 3.44985 11.2766 3.41903C11.2874 3.40371 11.2958 3.39179 11.3016 3.38354C11.3045 3.37951 11.3069 3.37627 11.3085 3.37401L11.3103 3.37142L11.3111 3.37055C11.4772 3.13834 11.7453 3 12.0303 3C12.3151 3.00011 12.5826 3.13761 12.7486 3.36968L12.7494 3.37142L12.7512 3.37401C12.7528 3.37628 12.7552 3.37945 12.7581 3.38354C12.7639 3.39177 12.7723 3.4037 12.7831 3.41903C12.8048 3.44983 12.8367 3.49439 12.8763 3.5515C12.9558 3.66581 13.0685 3.83038 13.2035 4.032C13.4732 4.43444 13.8342 4.99018 14.1964 5.59905C14.5568 6.20496 14.9279 6.87958 15.2117 7.51674C15.4802 8.11994 15.7279 8.81253 15.7279 9.41191Z" fill="currentColor"/>
  </symbol>

  <symbol id="check-list" viewBox="0 0 24 24">
    <path fill-rule="evenodd" clip-rule="evenodd" d="M4.5 16C5.88066 16 6.99992 17.1194 7 18.5C7 19.8807 5.88071 21 4.5 21C3.11929 21 2 19.8807 2 18.5C2.00008 17.1194 3.11934 16 4.5 16ZM4.5 17.5C3.94776 17.5 3.50008 17.9478 3.5 18.5C3.5 19.0523 3.94772 19.5 4.5 19.5C5.05228 19.5 5.5 19.0523 5.5 18.5C5.49992 17.9478 5.05224 17.5 4.5 17.5Z" fill="currentColor"/>
    <path d="M21 17.5C21.5522 17.5 21.9999 17.9478 22 18.5C22 19.0523 21.5523 19.5 21 19.5H9.5C8.94772 19.5 8.5 19.0523 8.5 18.5C8.50008 17.9478 8.94776 17.5 9.5 17.5H21Z" fill="currentColor"/>
    <path d="M5.25244 9.83551C5.61937 9.42288 6.25182 9.38565 6.66455 9.7525C7.07726 10.1194 7.11435 10.7518 6.74756 11.1646L4.74756 13.4146C4.40203 13.8033 3.81596 13.8619 3.3999 13.5498L2.3999 12.7998C1.95822 12.4684 1.86887 11.8417 2.2002 11.4C2.53162 10.9584 3.15837 10.869 3.6001 11.2002L3.86328 11.3975L5.25244 9.83551Z" fill="currentColor"/>
    <path d="M21 11.0001C21.5522 11.0001 21.9999 11.4479 22 12C22 12.5523 21.5522 13 21 13H9.5C8.94772 13 8.5 12.5523 8.5 12C8.50008 11.4478 8.94776 11.0001 9.5 11.0001H21Z" fill="currentColor"/>
    <path d="M5.25244 3.33554C5.61937 2.92292 6.25182 2.88569 6.66455 3.25254C7.07726 3.61942 7.11435 4.25187 6.74756 4.66464L4.74756 6.91463C4.40203 7.30332 3.81596 7.36192 3.3999 7.04988L2.3999 6.29988C1.95822 5.96848 1.86887 5.34176 2.2002 4.89999C2.53162 4.45842 3.15837 4.369 3.6001 4.70028L3.86328 4.89755L5.25244 3.33554Z" fill="currentColor"/>
    <path d="M21 4.50009C21.5522 4.50014 21.9999 4.9479 22 5.50008C22 6.05234 21.5522 6.50003 21 6.50008H9.5C8.94772 6.50008 8.5 6.05237 8.5 5.50008C8.50008 4.94787 8.94776 4.50009 9.5 4.50009H21Z" fill="currentColor"/>
  </symbol>

  <symbol id="location-pin" viewBox="0 0 24 24">
    <path d="M19.5795 10.5656C19.5795 6.58162 16.186 3.35194 12 3.3519C7.81397 3.3519 4.42047 6.58161 4.42047 10.5656C4.42049 12.8469 5.81913 15.0798 7.50416 16.9238C9.17283 18.7497 11.0259 20.089 11.7323 20.5715L11.7878 20.6032C11.8475 20.6314 11.9182 20.6481 12 20.6481C12.1088 20.6481 12.1982 20.619 12.2677 20.5715L12.9918 20.0553C13.889 19.3897 15.2441 18.2935 16.4958 16.9238C18.1808 15.0798 19.5795 12.8469 19.5795 10.5656ZM21 10.5656C21 13.3436 19.3215 15.8907 17.5667 17.8109C15.7956 19.749 13.8443 21.1574 13.0959 21.6686L13.0973 21.6699C12.7676 21.8952 12.3824 22 12 22C11.6175 22 11.2324 21.8952 10.9027 21.6699C10.1541 21.1586 8.2029 19.7489 6.43187 17.8109C4.67726 15.8908 3.00002 13.3434 3 10.5656C3 5.83497 7.02947 2 12 2C16.9706 2.00003 21 5.83499 21 10.5656Z" fill="currentColor"/>
    <path d="M14.3039 9.84819C14.3039 9.56024 14.2449 9.27456 14.1291 9.00853C14.0135 8.74284 13.8434 8.50169 13.6298 8.29825C13.4158 8.09464 13.1616 7.93186 12.8821 7.82165C12.6025 7.71145 12.3024 7.65531 11.9998 7.65531C11.6973 7.65532 11.3971 7.71146 11.1176 7.82165C10.8381 7.93186 10.5852 8.09468 10.3713 8.29825C10.1574 8.50182 9.98631 8.74257 9.87052 9.00853C9.75473 9.27457 9.69575 9.56024 9.69573 9.84819C9.69573 10.1362 9.75472 10.4218 9.87052 10.6878C9.98631 10.9539 10.1573 11.1958 10.3713 11.3994C10.585 11.6027 10.8384 11.7646 11.1176 11.8747C11.3971 11.9849 11.6973 12.0411 11.9998 12.0411C12.3024 12.0411 12.6025 11.9849 12.8821 11.8747C13.1616 11.7645 13.4158 11.603 13.6298 11.3994C13.8437 11.1958 14.0134 10.9539 14.1291 10.6878C14.2449 10.4218 14.3039 10.1362 14.3039 9.84819ZM15.7244 9.84819C15.7244 10.3137 15.6286 10.7753 15.4414 11.2054C15.2542 11.6353 14.9799 12.0262 14.6341 12.3553C14.2883 12.6844 13.8776 12.9455 13.4259 13.1237C12.974 13.3018 12.489 13.393 11.9998 13.393C11.511 13.393 11.0269 13.3016 10.5752 13.1237C10.1233 12.9455 9.71145 12.6845 9.36559 12.3553C9.01984 12.0262 8.74541 11.6353 8.55825 11.2054C8.37107 10.7753 8.27527 10.3137 8.27527 9.84819C8.27528 9.38295 8.37128 8.92218 8.55825 8.49232C8.74543 8.06224 9.01972 7.67027 9.36559 7.34109C9.71145 7.01192 10.1233 6.75087 10.5752 6.57273C11.0269 6.39478 11.511 6.30341 11.9998 6.3034C12.489 6.3034 12.974 6.39458 13.4259 6.57273C13.8776 6.75085 14.2883 7.01203 14.6341 7.34109C14.9799 7.67027 15.2542 8.06224 15.4414 8.49232C15.6284 8.9222 15.7244 9.38293 15.7244 9.84819Z" fill="currentColor"/>
  </symbol>

  <symbol id="emergency" viewBox="0 0 24 24">
    <path d="M5.31645 4.86426C5.83814 4.86427 6.3391 5.07068 6.71 5.4375L6.72172 5.44922L8.93071 7.74414C9.29313 8.11197 9.49605 8.60738 9.49614 9.12402C9.49603 9.64311 9.28956 10.1404 8.92387 10.5088L8.92485 10.5098C8.80836 10.6275 8.7433 10.7875 8.74321 10.9531C8.74335 11.1176 8.80689 11.2761 8.92192 11.3936L12.5772 15.0488L12.6729 15.125C12.7751 15.1926 12.8962 15.2314 13.0206 15.2314C13.186 15.2313 13.3453 15.1651 13.4629 15.0488C13.8314 14.6828 14.3293 14.4776 14.8487 14.4775C15.3682 14.4775 15.8669 14.6826 16.2354 15.0488L18.5313 17.3301L18.5362 17.334C18.9028 17.7048 19.1084 18.2066 19.1084 18.7285C19.1083 19.25 18.9025 19.7504 18.5362 20.1211L18.5323 20.124L17.9883 20.6689C17.2535 21.403 16.2886 21.8642 15.2559 21.9746C14.2232 22.0849 13.1829 21.8385 12.3096 21.2764L12.2979 21.2686C8.51224 18.7187 5.25506 15.4605 2.70512 11.6748C2.70099 11.6687 2.69639 11.6625 2.69243 11.6562C2.14059 10.7737 1.90756 9.72763 2.03325 8.69434C2.15899 7.66116 2.6356 6.70202 3.38285 5.97754L3.92094 5.44043L3.92289 5.4375C4.29375 5.07073 4.79484 4.86433 5.31645 4.86426ZM5.31645 6.2168C5.15086 6.21687 4.99184 6.282 4.87407 6.39844L4.33207 6.94141L4.32426 6.94824C3.79899 7.45747 3.46437 8.13217 3.37602 8.8584C3.28852 9.57871 3.44799 10.3078 3.82914 10.9248C6.28132 14.564 9.41416 17.695 13.0538 20.1465C13.6649 20.5362 14.3903 20.7068 15.1114 20.6299C15.8374 20.5523 16.5158 20.2289 17.0323 19.7129L17.5762 19.168C17.6913 19.0503 17.7557 18.8927 17.7559 18.7285C17.7559 18.563 17.6907 18.4032 17.5743 18.2852L15.2832 16.0088C15.168 15.8941 15.0113 15.8291 14.8487 15.8291C14.6861 15.8292 14.5293 15.8932 14.4141 16.0078L14.4131 16.0098C14.0424 16.3764 13.542 16.5828 13.0206 16.583C12.4988 16.583 11.9969 16.3767 11.626 16.0098L7.96391 12.3467C7.59705 11.9759 7.39081 11.4747 7.39067 10.9531C7.39076 10.4315 7.59705 9.93043 7.96391 9.55957L7.96489 9.55762C8.07943 9.44248 8.14447 9.28647 8.14457 9.12402C8.14448 8.9617 8.0793 8.80558 7.96489 8.69043L7.95707 8.68164L5.75883 6.39844L5.6641 6.32031C5.56189 6.25275 5.44074 6.21681 5.31645 6.2168ZM18.375 2C19.0864 2.00013 19.6628 2.57659 19.6631 3.28809V4.33691H20.712C21.4233 4.33725 21.9999 4.9135 22 5.625V7.61621C22 8.32779 21.4233 8.90396 20.712 8.9043H19.6631V9.95312C19.6629 10.6647 19.0865 11.2411 18.375 11.2412H16.3838C15.6722 11.2412 15.096 10.6647 15.0957 9.95312V8.9043H14.0469C13.3353 8.90412 12.7589 8.32783 12.7588 7.61621V5.625C12.759 4.91347 13.3354 4.33709 14.0469 4.33691H15.0957V3.28809C15.096 2.57661 15.6723 2.00003 16.3838 2H18.375ZM16.4473 5.0127C16.447 5.38549 16.1443 5.68805 15.7715 5.68848H14.1104V7.55273H15.7715C16.1442 7.55316 16.4469 7.85581 16.4473 8.22852V9.88965H18.3116V8.22852C18.312 7.85574 18.6146 7.55306 18.9873 7.55273H20.6485V5.68848H18.9873C18.6145 5.68815 18.3119 5.38555 18.3116 5.0127V3.35156H16.4473V5.0127Z" fill="currentColor"/>
  </symbol>

  <symbol id="burger-menu" viewBox="0 0 24 24">
    <path d="M21.0192 4C21.5609 4.00001 22 4.44363 22 4.99086C22 5.53809 21.5609 5.9817 21.0192 5.98172H2.98078C2.43911 5.98172 2 5.53809 2 4.99086C2 4.44362 2.43911 4 2.98078 4H21.0192Z" fill="currentColor"/>
    <path d="M21.0192 11.0091C21.5609 11.0092 22 11.4528 22 12C22 12.5472 21.5609 12.9908 21.0192 12.9909H2.98078C2.43911 12.9909 2 12.5472 2 12C2 11.4528 2.43911 11.0091 2.98078 11.0091H21.0192Z" fill="currentColor"/>
    <path d="M21.0192 18.0183C21.5609 18.0183 22 18.4619 22 19.0091C22 19.5564 21.5609 20 21.0192 20H2.98078C2.43911 20 2 19.5564 2 19.0091C2 18.4619 2.43911 18.0183 2.98078 18.0183H21.0192Z" fill="currentColor"/>
  </symbol>

  <symbol id="close" viewBox="0 0 24 24">
    <path d="M19.9911 2.34458C20.4505 1.88514 21.1957 1.88514 21.6551 2.34458C22.1142 2.804 22.1143 3.54831 21.6551 4.00767L13.6629 11.9989L21.6551 19.9911C22.1146 20.4505 22.1146 21.1957 21.6551 21.6551C21.1957 22.1146 20.4505 22.1146 19.9911 21.6551L11.9989 13.6629L4.00767 21.6551C3.54831 22.1143 2.80399 22.1142 2.34458 21.6551C1.88514 21.1957 1.88514 20.4505 2.34458 19.9911L10.3358 11.9989L2.34458 4.00767C1.88514 3.54823 1.88514 2.80402 2.34458 2.34458C2.80402 1.88514 3.54823 1.88514 4.00767 2.34458L11.9989 10.3358L19.9911 2.34458Z" fill="currentColor"/>
  </symbol>
</svg>